<svg width="367" height="367" viewBox="0 0 367 367" fill="none" xmlns="http://www.w3.org/2000/svg">
<path d="M53.8624 281.596C119.012 314.905 224.635 314.913 289.785 281.596C354.934 248.28 354.934 194.25 289.785 160.971C224.635 127.691 119.012 127.662 53.8624 160.971C-11.2875 194.28 -11.2875 248.309 53.8624 281.596Z" fill="#F5F5F5"/>
<path d="M74.1734 271.75L39 251.58L85.3449 225.515L74.3862 272.117" fill="#E0E0E0"/>
<path d="M269.505 259.404C288.753 259.404 304.356 250.922 304.356 240.459C304.356 229.997 288.753 221.515 269.505 221.515C250.258 221.515 234.655 229.997 234.655 240.459C234.655 250.922 250.258 259.404 269.505 259.404Z" fill="#E0E0E0"/>
<path d="M139.565 253.679L170.885 271.764C172.052 272.355 173.342 272.662 174.65 272.662C175.959 272.662 177.248 272.355 178.416 271.764L241.54 235.329C243.617 234.125 243.617 232.18 241.54 230.983L210.22 212.898C209.053 212.308 207.763 212 206.455 212C205.146 212 203.857 212.308 202.689 212.898L139.565 249.333C137.481 250.559 137.481 252.482 139.565 253.679Z" fill="#E0E0E0"/>
<path d="M219.976 101.791L210.482 101.657L210.838 75.1506C210.833 70.4951 209.935 65.8861 208.193 61.5868C206.452 57.2875 203.901 53.3821 200.688 50.0935C197.475 46.805 193.661 44.1977 189.465 42.4206C185.27 40.6434 180.774 39.7312 176.234 39.736C171.694 39.7408 167.2 40.6625 163.008 42.4485C158.816 44.2345 155.007 46.8499 151.801 50.1452C145.324 56.8004 141.691 65.8214 141.701 75.2236L141.345 101.791L131.851 101.657L132.207 75.1506C132.217 63.1662 136.868 51.6765 145.138 43.2092C153.408 34.7418 164.619 29.9903 176.305 30C187.991 30.0097 199.195 34.7797 207.451 43.2608C215.708 51.7419 220.341 63.2392 220.332 75.2236L219.976 101.791Z" fill="#263238"/>
<path d="M220.853 88.877H132.705C120.718 88.877 111 98.8426 111 111.136V198.431C111 210.724 120.718 220.69 132.705 220.69H220.853C232.84 220.69 242.558 210.724 242.558 198.431V111.136C242.558 98.8426 232.84 88.877 220.853 88.877Z" fill="#4D97CF"/>
<g opacity="0.3">
<path d="M189.88 147.829C189.888 145.483 189.298 143.176 188.168 141.137C187.038 139.098 185.408 137.397 183.439 136.204C181.47 135.011 179.231 134.366 176.944 134.334C174.657 134.303 172.402 134.885 170.402 136.024C168.402 137.162 166.728 138.817 165.545 140.824C164.362 142.831 163.711 145.121 163.657 147.466C163.604 149.811 164.149 152.129 165.239 154.191C166.33 156.253 167.927 157.987 169.872 159.22L166.514 175.15H188.017C188.017 175.15 185.643 165.134 184.077 158.964C185.858 157.736 187.319 156.079 188.33 154.138C189.342 152.196 189.874 150.03 189.88 147.829Z" fill="black"/>
</g>
<g opacity="0.2">
<path d="M119.412 180.725C118.558 180.725 118.226 165.33 118.57 146.382C118.914 127.433 119.958 112.075 120.813 112.099C121.667 112.123 121.999 127.494 121.655 146.443C121.311 165.391 120.267 180.738 119.412 180.725Z" fill="white"/>
</g>
<g opacity="0.2">
<path d="M119.51 195.974C118.655 195.974 117.955 194.489 117.931 192.627C117.908 190.765 118.572 189.256 119.427 189.244C120.281 189.232 120.993 190.728 121.017 192.59C121.041 194.452 120.364 195.962 119.51 195.974Z" fill="white"/>
</g>
<g opacity="0.2">
<path d="M160.784 177.343C160.107 177.112 161.709 170.102 164.498 160.78L164.854 162.313C163.584 161.023 162.267 159.672 160.89 158.175C158.761 155.686 157.508 152.536 157.33 149.23C157.187 146.574 157.797 143.932 159.087 141.624C159.905 140.1 161.044 138.782 162.421 137.766C163.394 137.073 164.047 136.89 164.154 137.06C164.462 137.438 162.457 139.068 161.045 142.61C160.16 144.825 159.89 147.248 160.265 149.611C160.64 151.973 161.645 154.184 163.169 155.997L166.99 160.135L167.619 160.828L167.334 161.68C164.213 170.942 161.46 177.562 160.784 177.343Z" fill="white"/>
</g>
<g opacity="0.2">
<path d="M215.085 98.0284C215.085 98.4665 209.828 98.8316 201.343 99.0506C192.858 99.2697 181.169 99.3549 168.115 99.2575C161.636 99.2575 155.465 99.1115 149.852 98.9898C144.239 98.8681 139.172 98.5152 135.125 98.9898C131.914 99.2283 128.814 100.3 126.118 102.105C124.231 103.432 123.46 104.539 123.246 104.393C123.033 104.247 123.543 102.921 125.358 101.156C128.034 98.7699 131.336 97.2459 134.852 96.7749C137.208 96.3998 139.588 96.2086 141.972 96.2029L149.947 96.1177C155.56 96.1177 161.731 96.1177 168.21 96.1177C181.169 96.215 192.894 96.495 201.379 96.8479C209.863 97.2008 215.085 97.5902 215.085 98.0284Z" fill="white"/>
</g>
</svg>
