<svg width="300" height="300" viewBox="0 0 300 300" fill="none" xmlns="http://www.w3.org/2000/svg">
<rect width="300" height="300" fill="white"/>
<path d="M222.698 156.786C230.22 149.77 235.614 140.777 238.261 130.837C240.909 120.898 240.704 110.413 237.669 100.585C234.634 90.7566 228.893 81.9818 221.102 75.2653C213.312 68.5489 203.787 64.1624 193.619 62.6084C183.451 61.0543 173.05 62.3955 163.609 66.4782C154.168 70.561 146.068 77.2204 140.236 85.6935C134.404 94.1666 131.076 104.111 130.634 114.388C130.192 124.664 132.653 134.858 137.736 143.8L126.593 154.193L129.276 172.682L111.97 167.952L98.0294 180.96L100.804 199.335L83.5204 194.491L71.5356 205.657L73.173 217.028L62.6209 214.072L55.6621 220.576L54.616 237.7L80.1547 244.136L163.047 166.815C172.877 171.184 183.775 172.562 194.382 170.779C204.99 168.996 214.838 164.129 222.698 156.786ZM214.511 89.4483C216.633 91.7204 218.033 94.5709 218.535 97.639C219.036 100.707 218.617 103.855 217.328 106.685C216.04 109.514 213.942 111.898 211.299 113.534C208.656 115.171 205.586 115.987 202.479 115.879C199.372 115.77 196.367 114.743 193.844 112.926C191.321 111.11 189.394 108.586 188.306 105.674C187.218 102.761 187.018 99.5918 187.732 96.566C188.446 93.5401 190.041 90.794 192.316 88.675C195.363 85.8368 199.412 84.324 203.573 84.469C207.735 84.6139 211.669 86.4048 214.511 89.4483Z" fill="#263238"/>
<path d="M214.511 89.4481C214.511 89.4481 213.487 88.493 211.395 87.174C208.421 85.3963 204.947 84.6378 201.503 85.0135C198.711 85.3148 196.058 86.3876 193.841 88.1118C191.624 89.8359 189.931 92.1432 188.952 94.7752C187.972 97.4072 187.745 100.26 188.296 103.014C188.846 105.768 190.152 108.314 192.068 110.367C193.984 112.42 196.434 113.899 199.144 114.639C201.853 115.378 204.714 115.349 207.408 114.553C210.101 113.758 212.52 112.229 214.393 110.136C216.266 108.044 217.52 105.471 218.013 102.706C218.645 99.2994 218.125 95.7789 216.535 92.7002C215.398 90.426 214.397 89.5164 214.511 89.4254C214.625 89.3344 214.806 89.6301 215.261 90.1076C215.93 90.7964 216.517 91.5594 217.012 92.3818C218.862 95.5184 219.554 99.2036 218.968 102.797C218.629 104.935 217.863 106.983 216.718 108.82C215.572 110.657 214.069 112.245 212.298 113.49C210.527 114.735 208.524 115.611 206.408 116.068C204.292 116.524 202.106 116.551 199.979 116.147C196.553 115.518 193.42 113.804 191.044 111.256C188.668 108.708 187.176 105.463 186.789 102.001C186.534 99.8532 186.713 97.6756 187.314 95.5977C187.916 93.5198 188.929 91.5838 190.292 89.9043C191.656 88.2248 193.343 86.836 195.253 85.8201C197.163 84.8043 199.257 84.182 201.412 83.9902C205.047 83.6546 208.684 84.6042 211.691 86.6737C212.523 87.2079 213.287 87.8418 213.965 88.5612C214.511 89.1525 214.647 89.4254 214.511 89.4481Z" fill="#263238"/>
<path d="M222.698 156.786C222.698 156.786 222.448 157.059 221.902 157.536L219.491 159.81C216.223 162.471 212.669 164.76 208.894 166.633C201.708 170.075 193.861 171.916 185.895 172.03C177.928 172.144 170.032 170.528 162.751 167.292H163.206L80.4498 244.75L80.2225 245H79.8813L54.3427 238.587L53.8196 238.473V237.927C54.138 232.583 54.4791 226.739 54.843 220.803V220.257L55.0249 220.075L62.143 213.435L62.3931 213.185H62.757L73.309 216.141L72.4676 216.869C71.9446 213.344 71.3988 209.478 70.8302 205.498V205.157L71.0804 204.929L83.0652 193.741L83.338 193.468H83.7019L100.985 198.312L100.144 199.062C99.3025 193.195 98.3929 186.918 97.4832 180.573V180.209L97.7561 179.982L101.44 176.525L111.697 166.974L111.97 166.701H112.333L129.64 171.545L128.775 172.295C127.881 166.064 126.994 159.901 126.115 153.807V153.465L126.365 153.215L137.508 142.822L137.395 143.641C133.082 135.981 130.643 127.409 130.276 118.626C130.064 114.382 130.369 110.128 131.186 105.959C131.931 101.858 133.152 97.8591 134.825 94.042C139.043 84.388 145.933 76.141 154.683 70.2729C163.432 64.4047 173.677 61.16 184.21 60.921C194.742 60.682 205.124 63.4587 214.131 68.9239C223.138 74.3892 230.395 82.3151 235.046 91.7678C239.409 100.686 241.272 110.62 240.436 120.513C239.86 127.887 237.769 135.064 234.296 141.594C233.955 142.277 233.614 142.913 233.273 143.55L232.158 145.279C231.408 146.393 230.794 147.553 230.066 148.394C228.588 150.168 227.451 151.76 226.336 152.942L223.607 155.967L222.721 156.786C222.721 156.786 222.971 156.467 223.516 155.876L225.973 153.261C227.041 152.124 228.247 150.509 229.588 148.712C230.271 147.78 230.862 146.688 231.59 145.597C231.954 145.028 232.317 144.46 232.681 143.846L233.682 141.913C237.041 135.449 239.065 128.376 239.634 121.114C240.202 113.852 239.303 106.55 236.991 99.6426C234.678 92.7353 230.999 86.3641 226.172 80.9086C221.345 75.453 215.47 71.0246 208.896 67.8873C202.322 64.7499 195.184 62.9677 187.907 62.6468C180.629 62.326 173.362 63.473 166.538 66.0196C159.713 68.5662 153.471 72.4603 148.183 77.4699C142.895 82.4794 138.669 88.5021 135.757 95.179C134.136 98.9127 132.945 102.819 132.209 106.823C131.432 110.898 131.142 115.051 131.345 119.194C131.733 127.74 134.125 136.076 138.327 143.527L138.577 143.982L138.19 144.346L127.07 154.739L127.275 154.148C128.154 160.212 129.041 166.383 129.935 172.659L130.095 173.683L129.071 173.41L111.788 168.566L112.447 168.407L102.191 177.958L98.5293 181.347L98.734 180.732C99.6437 187.077 100.553 193.377 101.395 199.221L101.554 200.267L100.531 199.995L83.2471 195.128L83.8838 194.969C79.7676 198.835 75.6742 202.633 71.8991 206.157L72.1265 205.566C72.6723 209.455 73.2181 213.321 73.7411 216.937L73.8776 217.938L72.8997 217.665L62.3704 214.708L62.9844 214.549L56.0027 221.053L56.2075 220.621C55.8436 226.557 55.4797 232.401 55.1613 237.745L54.6838 237.086L80.2225 243.522L79.6539 243.681L162.66 166.496L162.865 166.314H163.115C170.295 169.545 178.087 171.189 185.96 171.134C193.832 171.079 201.601 169.327 208.735 165.996C212.498 164.203 216.065 162.023 219.378 159.492L221.856 157.422L222.698 156.786Z" fill="#263238"/>
<path d="M220.856 150.578C228.374 143.565 233.766 134.578 236.413 124.644C239.061 114.71 238.857 104.231 235.826 94.4074C232.794 84.5837 227.058 75.8123 219.273 69.0975C211.488 62.3827 201.969 57.996 191.807 56.4397C181.645 54.8834 171.249 56.2204 161.812 60.2976C152.374 64.3748 144.275 71.0274 138.443 79.4936C132.611 87.9598 129.28 97.8974 128.833 108.168C128.387 118.439 130.841 128.629 135.916 137.569L124.796 147.94L127.457 166.451L110.173 161.584L96.2552 174.615L98.916 193.104L81.6325 188.26L69.6477 199.449L71.2624 210.82L60.7331 207.886L53.7514 214.39L52.7053 231.515L78.244 237.928L161.137 160.607C170.973 164.999 181.887 166.391 192.51 164.607C203.134 162.823 212.994 157.942 220.856 150.578ZM212.76 83.2401C214.882 85.5122 216.282 88.3627 216.783 91.4309C217.285 94.499 216.865 97.647 215.577 100.476C214.289 103.306 212.19 105.69 209.547 107.326C206.904 108.963 203.835 109.779 200.728 109.67C197.621 109.562 194.616 108.535 192.093 106.718C189.57 104.902 187.642 102.378 186.554 99.4654C185.466 96.5532 185.267 93.3836 185.98 90.3578C186.694 87.332 188.289 84.5859 190.564 82.4669C192.072 81.0587 193.842 79.9616 195.773 79.2383C197.705 78.5149 199.761 78.1796 201.822 78.2514C203.884 78.3232 205.911 78.8008 207.788 79.6568C209.665 80.5128 211.354 81.7305 212.76 83.2401Z" fill="#4D97CF"/>
<path d="M212.76 83.2397C212.76 83.2397 211.736 82.2846 209.644 80.9656C206.699 79.1293 203.226 78.3289 199.774 78.6914C196.99 78.9976 194.345 80.0724 192.136 81.7957C189.927 83.519 188.241 85.8227 187.267 88.4494C186.293 91.076 186.068 93.9219 186.619 96.6688C187.169 99.4157 188.473 101.955 190.384 104.004C192.296 106.052 194.739 107.528 197.442 108.267C200.144 109.006 202.999 108.978 205.686 108.188C208.374 107.397 210.789 105.874 212.66 103.79C214.532 101.705 215.787 99.1413 216.285 96.3843C216.912 92.9748 216.383 89.4535 214.784 86.378C213.647 84.1039 212.669 83.1942 212.76 83.1033C212.851 83.0123 213.055 83.3079 213.533 83.7855C214.193 84.4756 214.773 85.2385 215.261 86.0597C217.118 89.2019 217.81 92.8969 217.217 96.498C216.874 98.6323 216.108 100.676 214.963 102.51C213.818 104.343 212.317 105.929 210.549 107.173C208.782 108.417 206.783 109.295 204.67 109.754C202.558 110.213 200.375 110.245 198.251 109.847C194.826 109.253 191.683 107.572 189.287 105.053C186.891 102.535 185.369 99.3117 184.947 95.8612C184.698 93.7141 184.882 91.5389 185.486 89.4635C186.09 87.3882 187.103 85.4546 188.466 83.7765C189.828 82.0984 191.512 80.7096 193.419 79.6919C195.326 78.6741 197.417 78.0479 199.57 77.85C203.207 77.519 206.846 78.4769 209.849 80.5562C210.686 81.0838 211.45 81.7183 212.123 82.4438C212.601 82.9441 212.805 83.217 212.76 83.2397Z" fill="#263238"/>
<path d="M220.855 150.578C220.855 150.578 220.605 150.851 220.082 151.329L217.672 153.466C214.399 156.12 210.845 158.408 207.074 160.289C199.884 163.73 192.034 165.571 184.064 165.684C176.094 165.798 168.194 164.182 160.909 160.948H161.364L78.6303 238.406L78.3801 238.633H78.0617L52.5003 232.22L52 232.083V231.56C52.3184 226.216 52.6822 220.372 53.0233 214.436V214.163L53.2053 214.004L60.1869 207.477L60.4598 207.227H60.8237L71.353 210.161L70.5115 210.911C70.0112 207.386 69.4427 203.52 68.8741 199.54V199.199L69.147 198.949L81.1091 187.783L81.382 187.51L81.7686 187.624L99.0521 192.468L98.1879 193.218L95.5272 174.775V174.411L95.7773 174.161L99.4842 170.727L109.718 161.176L109.991 160.903L110.377 161.016L127.661 165.86L126.797 166.611C125.902 160.38 125.015 154.217 124.136 148.122V147.758L124.409 147.531L135.552 137.138L135.416 137.957C131.104 130.296 128.664 121.724 128.298 112.941C128.096 108.697 128.402 104.445 129.207 100.274C129.956 96.1747 131.177 92.1759 132.846 88.3574C138.02 76.3276 147.307 66.5318 159.043 60.7228C170.78 54.9138 184.2 53.4708 196.903 56.6521C209.606 59.8333 220.763 67.4312 228.376 78.086C235.99 88.7408 239.563 101.757 238.457 114.806C237.878 122.179 235.788 129.355 232.317 135.887L231.294 137.843L230.18 139.571C229.429 140.686 228.815 141.845 228.11 142.687C226.632 144.461 225.495 146.052 224.38 147.235L221.742 149.759C221.174 150.328 220.855 150.601 220.855 150.601C220.855 150.601 221.128 150.26 221.674 149.668L224.107 147.076C225.176 145.939 226.382 144.324 227.723 142.528C228.406 141.618 229.02 140.526 229.747 139.412L230.839 137.684L231.817 135.728C235.178 129.233 237.182 122.122 237.707 114.828C238.673 102.057 235.091 89.3551 227.593 78.9708C220.095 68.5866 209.166 61.1893 196.739 58.088C184.312 54.9867 171.188 56.3813 159.691 62.0251C148.193 67.6688 139.063 77.1978 133.915 88.9259C132.3 92.6603 131.118 96.5668 130.39 100.57C129.6 104.643 129.31 108.797 129.526 112.941C129.907 121.485 132.29 129.82 136.485 137.274L136.757 137.729L136.371 138.093L125.228 148.486L125.432 147.895C126.327 153.959 127.214 160.122 128.093 166.383L128.252 167.43L127.252 167.134L109.9 162.267L110.537 162.108L100.303 171.682L96.596 175.116L96.8007 174.525C97.7331 180.87 98.62 187.146 99.4615 193.014L99.6207 194.06L98.62 193.764L81.3137 188.92L81.9733 188.761L69.9885 199.927L70.1932 199.359C70.739 203.247 71.3075 207.091 71.8078 210.616L71.9443 211.639L70.9664 211.366L60.4371 208.41L61.0511 208.25L54.0922 214.755L54.2968 214.3C53.933 220.235 53.5691 226.103 53.228 231.424L52.7504 230.764L78.2891 237.223L77.7206 237.382L160.727 160.198L160.932 160.016L161.182 160.129C168.366 163.344 176.156 164.979 184.026 164.924C191.896 164.869 199.663 163.126 206.801 159.811C210.57 158.014 214.144 155.835 217.467 153.307L219.923 151.238L220.855 150.578Z" fill="#263238"/>
<path d="M215.83 146.303C218.53 143.412 220.994 140.309 223.198 137.024C225.693 133.131 227.586 128.883 228.815 124.425C230.496 118.517 231.029 112.341 230.385 106.232C229.637 98.85 227.168 91.7461 223.175 85.492C218.577 78.3321 212.156 72.5241 204.573 68.6633C200.511 66.5484 196.146 65.0755 191.633 64.2969C189.312 63.8634 186.964 63.5898 184.606 63.4782C182.198 63.4412 179.789 63.5627 177.397 63.8421C167.35 64.9944 157.937 69.3381 150.54 76.2351C143.144 83.1321 138.154 92.2191 136.303 102.161C135.857 104.528 135.569 106.921 135.439 109.325C135.392 111.688 135.506 114.051 135.78 116.398C136.238 120.955 137.405 125.413 139.237 129.61C142.557 137.447 147.912 144.255 154.746 149.327C160.696 153.757 167.607 156.718 174.918 157.969C180.945 159.037 187.122 158.937 193.111 157.673C197.645 156.743 202.014 155.141 206.074 152.92C209.503 150.961 212.765 148.725 215.83 146.234C215.83 146.234 215.671 146.439 215.284 146.78L213.579 148.327C212.665 149.164 211.684 149.925 210.645 150.601C209.278 151.636 207.834 152.563 206.324 153.375C202.254 155.706 197.852 157.401 193.27 158.401C182.212 160.871 170.638 159.392 160.556 154.22C150.475 149.048 142.522 140.511 138.077 130.088C136.179 125.753 134.967 121.15 134.484 116.443C133.832 111.639 133.978 106.759 134.916 102.002C136.804 91.7718 141.931 82.4191 149.538 75.3232C157.146 68.2273 166.832 63.7639 177.169 62.5913C182.039 61.9646 186.977 62.1336 191.792 63.0916C196.425 63.9239 200.903 65.4576 205.073 67.6399C212.839 71.6244 219.396 77.6158 224.062 84.9916C227.747 90.8484 230.143 97.4218 231.091 104.276C232.04 111.129 231.52 118.106 229.566 124.744C228.255 129.255 226.252 133.535 223.63 137.434C222.729 138.88 221.71 140.249 220.583 141.527C219.826 142.518 218.989 143.446 218.081 144.301L216.421 145.893C216.057 146.143 215.853 146.325 215.83 146.303Z" fill="#263238"/>
<path d="M213.624 107.437C213.51 107.437 214.761 106.255 216.284 103.821C218.428 100.348 219.341 96.2551 218.877 92.2003C218.562 89.2298 217.503 86.3866 215.798 83.934C214.092 81.4814 211.796 79.4985 209.121 78.1688C205.996 76.5693 202.463 75.9435 198.978 76.3722C196.242 76.7022 193.62 77.6627 191.318 79.1782C189.016 80.6938 187.097 82.723 185.713 85.106C184.328 87.4891 183.516 90.1609 183.34 92.9113C183.163 95.6617 183.628 98.4154 184.697 100.956C185.948 103.879 187.939 106.426 190.473 108.347C192.704 110.009 195.287 111.137 198.023 111.644C202.04 112.385 206.189 111.752 209.803 109.848C212.35 108.506 213.51 107.323 213.624 107.437C213.737 107.551 213.374 107.778 212.805 108.301C211.976 109.089 211.052 109.769 210.053 110.325C206.939 112.129 203.368 112.988 199.775 112.798C196.181 112.608 192.72 111.378 189.813 109.256C186.905 107.153 184.656 104.265 183.327 100.931C181.998 97.597 181.645 93.9537 182.309 90.4265C183.042 86.4295 185.044 82.7753 188.018 80.006C190.992 77.2368 194.78 75.5 198.819 75.0532C202.566 74.6005 206.363 75.2901 209.712 77.0317C212.733 78.6072 215.278 80.9629 217.08 83.8542C218.98 86.906 219.959 90.4414 219.898 94.0358C219.838 97.6302 218.741 101.131 216.739 104.117C216.088 105.069 215.325 105.94 214.465 106.709C213.965 107.232 213.646 107.483 213.624 107.437Z" fill="#263238"/>
<path d="M71.512 234.79C71.2619 234.517 89.9099 216.597 113.197 194.97C136.484 173.342 155.565 155.877 155.815 156.15C156.065 156.423 137.417 174.343 114.13 195.97C90.8422 217.597 71.7622 235.063 71.512 234.79Z" fill="#263238"/>
<path d="M77.6581 109.161L78.5239 107.277L79.6442 109.008C80.5595 110.392 81.8486 111.486 83.3617 112.166L85.2714 113.006L83.54 114.152C82.1445 115.06 81.0397 116.351 80.3572 117.869L79.5169 119.754L78.3711 118.022C77.4601 116.635 76.1697 115.539 74.6535 114.865L72.7693 114.024L74.5007 112.879C75.8956 111.977 76.9938 110.684 77.6581 109.161Z" fill="#4D97CF"/>
<path d="M20.8518 95.0041L21.3356 93.9092L21.9976 94.9022C22.5221 95.7138 23.2752 96.3517 24.162 96.7355L25.2568 97.2448L24.2384 97.9068C23.4383 98.4332 22.8029 99.1745 22.4051 100.046L21.9213 101.166L21.2592 100.148C20.7348 99.3359 19.9817 98.698 19.0949 98.3142L18 97.805L18.9931 97.1684C19.7998 96.6315 20.443 95.8827 20.8518 95.0041Z" fill="#4D97CF"/>
<path d="M199.777 191.838L200.261 190.743L200.923 191.762C201.468 192.555 202.215 193.188 203.087 193.595L204.182 194.079L203.189 194.741C202.377 195.265 201.739 196.018 201.356 196.905L200.846 198L200.184 197.007C199.662 196.197 198.92 195.553 198.045 195.148L196.925 194.664L197.944 194.002C198.755 193.478 199.393 192.725 199.777 191.838Z" fill="#4D97CF"/>
<path d="M287.368 142.187L288.208 140.303L289.354 142.034C290.264 143.422 291.555 144.519 293.072 145.192L294.956 146.032L293.224 147.178C291.836 148.087 290.739 149.378 290.067 150.895L289.201 152.78L288.081 151.048C287.159 149.671 285.871 148.578 284.364 147.891L282.454 147.051L284.185 145.905C285.581 144.996 286.686 143.706 287.368 142.187Z" fill="#4D97CF"/>
<path d="M275.986 72.623L277.412 69.4402L279.322 72.3684C280.856 74.6965 283.019 76.5418 285.56 77.6901L288.743 79.0905L285.815 81.0002C283.49 82.5498 281.647 84.7198 280.493 87.264L279.067 90.4468L277.157 87.5186C275.623 85.1905 273.46 83.3452 270.919 82.1969L267.736 80.771L270.665 78.8613C272.993 77.327 274.838 75.1638 275.986 72.623Z" fill="#4D97CF"/>
<path d="M60.0132 51.1828L61.4391 48L63.3488 50.9027C64.8757 53.2375 67.0409 55.0846 69.5871 56.2244L72.77 57.6503L69.8672 59.56C67.5257 61.0792 65.6767 63.2467 64.5455 65.7983L63.1196 68.9812L61.2099 66.0784C59.6795 63.7371 57.504 61.8888 54.9462 60.7568L51.7888 59.3308L54.6915 57.4211C57.0262 55.8943 58.8733 53.729 60.0132 51.1828Z" fill="#4D97CF"/>
</svg>
