<svg width="413" height="380" viewBox="0 0 413 380" fill="none" xmlns="http://www.w3.org/2000/svg">
<path d="M84.2786 21.7417C84.2786 21.7417 89.6293 17.6447 90.9898 15.0134C92.1331 12.7928 93.002 9.60635 91.8015 7.24146C91.5408 6.66805 91.1579 6.15475 90.6782 5.73532C90.1985 5.31588 89.6328 4.9998 89.0184 4.80788C88.4039 4.61596 87.7545 4.55254 87.113 4.62179C86.4714 4.69104 85.8523 4.89139 85.2962 5.20967C82.0035 7.19706 81.6491 13.9808 82.4951 17.245C82.5637 17.5004 84.2215 21.7861 84.2786 21.7417Z" fill="#D2372E"/>
<path d="M34.8311 55.916C35.0484 56.1159 38.867 58.7917 38.8898 58.7361C38.9127 58.6806 41.0164 52.452 40.6619 49.5209C40.3647 47.0227 39.2671 43.9695 36.9119 42.5816C36.3684 42.2444 35.7575 42.0226 35.1194 41.9309C34.4813 41.8392 33.8305 41.8796 33.2096 42.0495C32.5888 42.2193 32.012 42.5148 31.517 42.9165C31.0221 43.3182 30.6203 43.8171 30.338 44.3803C28.7145 47.7999 32.2816 53.64 34.8311 55.916Z" fill="#D2372E"/>
<path d="M146.885 27.9592C146.885 27.9592 127.312 47.5889 127.449 71.693C127.587 95.797 147.309 115.26 147.309 115.26C147.309 115.26 166.893 95.6416 166.745 71.5264C166.596 47.4113 146.885 27.9592 146.885 27.9592Z" fill="#D2372E"/>
<path d="M118.978 86.1266C119.235 85.8588 119.472 85.5731 119.687 85.2717C121.104 83.1732 122.328 80.12 121.413 77.6108C121.221 77.0125 120.902 76.4604 120.475 75.9906C120.048 75.5208 119.524 75.1441 118.936 74.8851C118.349 74.6261 117.712 74.4907 117.067 74.4878C116.422 74.4849 115.783 74.6146 115.193 74.8684C112.529 76.0897 111.226 80.231 110.952 83.6174C109.888 83.3842 108.928 83.2066 108.105 83.0622C107.762 82.2961 107.408 81.5301 107.042 80.7529C106.676 79.9757 106.39 79.143 106.047 78.3214C105.578 77.1223 105.167 75.8565 104.744 74.5908C106.287 73.9247 110.792 71.8706 112.472 70.072C114.153 68.2734 115.902 65.3644 115.376 62.7553C115.279 62.1367 115.049 61.545 114.7 61.0188C114.352 60.4927 113.892 60.0441 113.353 59.7023C112.813 59.3606 112.205 59.1335 111.569 59.0358C110.932 58.9382 110.282 58.9723 109.66 59.1358C105.933 60.2461 103.749 66.6635 103.68 70.0276C103.68 70.1275 103.68 70.8381 103.806 71.693C103.44 70.4495 103.052 69.206 102.72 67.9292C101.76 64.3208 100.902 60.6125 100.033 56.9041C99.8503 56.1381 99.656 55.3609 99.473 54.5948C100.776 54.0285 105.681 51.8524 107.476 49.9649C109.271 48.0775 110.906 45.2574 110.38 42.6482C110.283 42.0296 110.053 41.4379 109.704 40.9117C109.356 40.3856 108.896 39.937 108.357 39.5952C107.817 39.2535 107.209 39.0264 106.572 38.9288C105.936 38.8311 105.286 38.8652 104.664 39.0287C100.948 40.139 98.7642 46.5564 98.6842 49.9205C98.6842 50.0315 98.7528 50.8865 98.8442 51.8413C98.3412 49.8317 97.8153 47.8332 97.2207 45.868C96.2341 42.4864 95.0117 39.1738 93.5622 35.9532C94.031 35.7645 99.8389 33.3219 101.794 31.2235C103.52 29.3582 105.224 26.5159 104.686 23.9068C104.59 23.2882 104.359 22.6964 104.011 22.1703C103.662 21.6442 103.203 21.1955 102.663 20.8538C102.123 20.5121 101.515 20.2849 100.879 20.1873C100.242 20.0897 99.5919 20.1237 98.97 20.2873C95.2543 21.3975 93.0706 27.8149 92.9906 31.1791C92.9906 31.4122 93.2764 34.5099 93.4136 35.6202C93.409 35.5833 93.409 35.546 93.4136 35.5091C91.9132 32.3828 90.1303 29.3918 88.0858 26.5714C86.2674 24.0439 84.3015 21.6196 82.1978 19.3102C80.2657 17.0897 78.3678 15.291 76.6757 13.6589C75.7497 12.7818 74.8808 11.9935 74.069 11.2718H74.1491C74.2177 11.2718 72.3426 7.07499 72.194 6.83073C70.4562 3.92181 65.3342 -0.708038 61.5499 0.0913603C60.9202 0.226232 60.327 0.488899 59.8093 0.86212C59.2915 1.23534 58.8608 1.71068 58.5456 2.25694C58.2303 2.80319 58.0376 3.40802 57.98 4.03172C57.9224 4.65542 58.0013 5.28389 58.2115 5.87589C59.0576 8.40732 61.9387 10.106 64.3739 10.9276C66.8091 11.7493 72.3769 11.3607 73.7146 11.2385C74.5378 12.0157 75.4181 12.8484 76.3671 13.7811C78.0248 15.4465 79.877 17.345 81.752 19.5323C82.255 20.1207 82.7695 20.7647 83.2725 21.3864C82.1978 20.5093 80.6887 19.3435 80.5286 19.2436C77.6132 17.445 70.8678 15.6241 67.8952 18.0223C67.4036 18.4335 67.0076 18.9417 66.7338 19.5129C66.4599 20.0842 66.3143 20.7055 66.3067 21.3356C66.2992 21.9657 66.4298 22.5901 66.6899 23.1674C66.9499 23.7448 67.3335 24.2617 67.8152 24.684C69.7588 26.5492 73.1315 26.7713 75.6925 26.4049C78.2535 26.0385 83.1239 23.0741 84.1643 22.4856C85.3076 23.8624 86.3709 25.3168 87.4341 26.9267C89.3881 29.737 91.083 32.7093 92.4989 35.8089C92.579 35.9866 92.6361 36.1864 92.7162 36.3641C92.2588 35.8422 89.5378 33.1776 89.2863 33.0332C86.5881 30.9237 80.1399 28.4034 76.8587 30.4685C76.3289 30.8257 75.8829 31.2877 75.5499 31.8242C75.217 32.3607 75.0047 32.9594 74.927 33.5812C74.8493 34.203 74.9078 34.8337 75.0989 35.432C75.2899 36.0302 75.6091 36.5825 76.0355 37.0524C77.7619 39.1175 81.0774 39.6949 83.6613 39.6061C86.6453 39.5061 92.5104 36.6305 92.7276 36.5195C94.046 39.6665 95.1535 42.8931 96.0432 46.1789C96.7063 48.6104 97.2894 51.0974 97.8381 53.5955C97.2322 52.9294 94.6941 50.4534 94.4883 50.2647C91.7901 48.1663 85.3419 45.6349 82.0607 47.7111C81.5309 48.0683 81.0849 48.5303 80.7519 49.0668C80.419 49.6032 80.2067 50.202 80.129 50.8238C80.0512 51.4456 80.1098 52.0763 80.3009 52.6746C80.4919 53.2728 80.8111 53.825 81.2375 54.295C82.9639 56.349 86.2794 56.9375 88.8633 56.8486C91.7787 56.7376 97.4151 54.0063 97.8839 53.7732L98.6384 57.1928C99.4273 60.9122 100.205 64.6428 101.085 68.2956C101.394 69.5613 101.737 70.8048 102.08 72.0483C101.131 71.0824 99.3702 69.3614 99.1987 69.2282C96.5005 67.1298 90.0523 64.5984 86.771 66.6746C86.2412 67.0318 85.7952 67.4938 85.4623 68.0303C85.1294 68.5667 84.9171 69.1655 84.8394 69.7873C84.7616 70.4091 84.8202 71.0398 85.0112 71.638C85.2023 72.2363 85.5215 72.7885 85.9479 73.2585C87.6742 75.3125 90.9898 75.9009 93.5736 75.801C96.1575 75.7011 100.959 73.5139 102.308 72.881C102.892 74.9461 103.52 76.9779 104.241 78.9542C104.572 79.798 104.847 80.6862 105.212 81.4745L105.761 82.7402L105.087 82.6403C105.087 82.6403 105.029 83.8172 105.144 85.7269C102.297 83.7617 98.1926 82.063 95.5172 83.251C94.9382 83.5262 94.4257 83.9171 94.0132 84.3982C93.6007 84.8793 93.2977 85.4396 93.1238 86.0425C92.95 86.6453 92.9094 87.277 93.0047 87.8962C93.0999 88.5153 93.3289 89.1079 93.6765 89.6351C93.8445 89.9215 94.0438 90.1896 94.271 90.4345C94.7756 93.3538 96.0431 96.0986 97.9525 98.4062C98.1011 98.5617 100.033 100.305 101.039 101.171C100.068 100.649 99.0958 100.149 98.0897 99.5942C96.6377 98.817 95.1285 97.9399 93.6537 97.0961L91.3671 95.6972C90.5896 95.2419 89.9037 94.709 89.1605 94.2094C88.0858 93.4655 87.0111 92.6328 85.9479 91.8112C86.8511 90.4122 89.4463 86.2598 89.8236 83.8838C90.2009 81.5078 89.9951 78.1326 88.0858 76.234C87.6567 75.7615 87.1289 75.383 86.5375 75.1238C85.9462 74.8645 85.3048 74.7304 84.6559 74.7304C84.0071 74.7304 83.3657 74.8645 82.7744 75.1238C82.183 75.383 81.6552 75.7615 81.2261 76.234C78.7337 79.1207 80.5744 85.6714 82.4265 88.5137C82.4265 88.6136 82.941 89.1687 83.4783 89.8349C82.4608 89.0022 81.4433 88.1695 80.4372 87.2813C77.5904 84.7831 74.7207 82.1518 71.9311 79.5093L70.1475 77.8773C70.925 76.7115 73.7718 72.2704 74.1719 69.75C74.5721 67.2297 74.3434 63.9988 72.4341 62.0891C72.005 61.6166 71.4772 61.2381 70.8858 60.9789C70.2944 60.7196 69.653 60.5855 69.0042 60.5855C68.3554 60.5855 67.714 60.7196 67.1226 60.9789C66.5313 61.2381 66.0035 61.6166 65.5743 62.0891C63.082 64.9759 64.9227 71.5265 66.7176 74.3799C66.7862 74.4798 67.335 75.146 67.9524 75.8898C66.3861 74.4909 64.8083 73.1031 63.1963 71.7818C60.453 69.4927 57.5539 67.3858 54.5187 65.4755C54.8045 65.0647 58.2572 59.9241 58.6917 57.1262C59.0804 54.6392 58.8632 51.375 56.9539 49.4653C56.5247 48.9927 55.9969 48.6143 55.4056 48.355C54.8142 48.0958 54.1728 47.9617 53.524 47.9617C52.8752 47.9617 52.2338 48.0958 51.6424 48.355C51.0511 48.6143 50.5233 48.9927 50.0941 49.4653C47.6017 52.352 49.4424 58.9026 51.2374 61.7561C51.3632 61.9559 53.3525 64.3652 54.0842 65.1979L53.9813 65.1313C50.9559 63.3204 47.7684 61.7783 44.4577 60.5236C41.5064 59.3911 38.4908 58.4236 35.4256 57.6258C32.5903 56.8597 29.9493 56.3268 27.6055 55.8716C26.3364 55.6384 25.1703 55.4386 24.0842 55.272C24.0842 55.272 20.1855 52.7295 19.9226 52.6074C16.8242 51.1085 9.91872 49.9871 7.22054 52.6851C6.77096 53.1445 6.42784 53.6921 6.21424 54.2909C6.00064 54.8898 5.9215 55.5261 5.98215 56.1572C6.04279 56.7882 6.24182 57.3994 6.56586 57.9495C6.88989 58.4996 7.33142 58.9761 7.86079 59.3468C9.99875 61.0011 13.3715 60.8789 15.8639 60.2461C18.3562 59.6132 22.7236 56.3379 23.8669 55.5163C25.0102 55.7161 26.1535 55.9382 27.5255 56.2047C29.8121 56.7154 32.4759 57.3149 35.277 58.1254C36.0316 58.3364 36.8205 58.6029 37.5636 58.8471C36.1688 58.7028 34.248 58.5362 34.0651 58.5362C30.6352 58.5918 23.947 60.6902 22.8265 64.2875C22.6581 64.8898 22.6222 65.5199 22.7214 66.1366C22.8206 66.7533 23.0525 67.3428 23.402 67.8666C23.7515 68.3904 24.2108 68.8367 24.7499 69.1766C25.289 69.5164 25.8958 69.7421 26.5308 69.8389C29.2175 70.3496 32.1444 68.7286 34.0765 67.0632C36.0087 65.3978 38.4211 60.3349 38.9127 59.2912C40.6276 59.8575 42.3426 60.4681 44.149 61.212C47.3911 62.5228 50.5057 64.1132 53.4554 65.964C53.6155 66.0639 53.787 66.1971 53.947 66.3082C53.2725 66.1194 49.4882 65.3533 49.2138 65.3311C45.7839 65.0203 38.9241 66.4414 37.3921 69.85C37.1518 70.4321 37.0412 71.057 37.0676 71.6837C37.0939 72.3103 37.2567 72.9244 37.545 73.4855C37.8334 74.0467 38.2409 74.5422 38.7407 74.9394C39.2405 75.3365 39.8212 75.6264 40.4447 75.7899C43.0628 76.5782 46.1612 75.2903 48.2649 73.8247C50.6886 72.1371 53.9813 66.5968 54.0614 66.3859C56.9467 68.3094 59.7037 70.4083 62.3159 72.6701C64.2481 74.3355 66.146 76.1119 68.0324 77.8994C67.1406 77.6774 63.6193 76.9557 63.3563 76.9335C59.9265 76.6226 53.0667 78.0438 51.5347 81.4634C51.2963 82.045 51.1872 82.6688 51.2146 83.2942C51.2419 83.9195 51.405 84.5322 51.6932 85.092C51.9815 85.6518 52.3883 86.1461 52.8871 86.5425C53.3858 86.939 53.9652 87.2286 54.5873 87.3923C57.2054 88.1806 60.3037 86.8927 62.4074 85.4271C64.774 83.7839 67.9181 78.4879 68.181 78.0438C69.0385 78.8543 69.896 79.6648 70.742 80.4864C73.5202 83.1732 76.287 85.8712 79.111 88.4471C80.0827 89.3464 81.0774 90.1902 82.0721 91.0451C80.7344 90.7453 78.2878 90.2568 78.0705 90.2346C74.6407 89.9237 67.7809 91.3449 66.2489 94.7645C66.0105 95.346 65.9014 95.9699 65.9288 96.5953C65.9561 97.2206 66.1192 97.8333 66.4075 98.3931C66.6957 98.9529 67.1025 99.4472 67.6013 99.8437C68.1 100.24 68.6794 100.53 69.3015 100.693C71.9082 101.493 75.018 100.194 77.1102 98.7393C79.2024 97.2849 81.9692 92.866 82.7238 91.6224C84.393 93.0214 86.0736 94.387 87.8 95.6527C88.5546 96.1746 89.2863 96.763 90.0866 97.2293L92.316 98.6727C93.8709 99.6164 95.3115 100.482 96.7863 101.315C97.518 101.748 98.2269 102.137 98.9586 102.536C97.6438 102.037 95.5287 101.293 95.3572 101.237C91.9959 100.427 85.0103 100.771 82.9639 103.969C82.6361 104.509 82.4298 105.11 82.3585 105.733C82.2872 106.356 82.3525 106.987 82.5501 107.583C82.7478 108.18 83.0732 108.729 83.5051 109.195C83.9371 109.661 84.4656 110.033 85.0561 110.286C87.5142 111.452 90.7726 110.63 93.0592 109.498C95.6087 108.243 99.4387 103.647 99.9189 103.08C101.702 104.069 103.44 105.001 105.087 105.856C109.477 108.143 113.318 109.964 116.291 111.319C125.963 119.446 139.568 120.334 139.568 120.334C139.568 120.334 140.289 104.502 130.696 94.0873C127.419 90.6536 123.423 87.9394 118.978 86.1266ZM101.714 101.571C102.011 100.915 104.332 95.8859 104.492 93.0547L106.093 92.7327C107.075 97.7318 109.119 102.477 112.095 106.667C110.334 105.86 108.429 104.957 106.379 103.958C104.904 103.214 103.326 102.414 101.714 101.571Z" fill="#D2372E"/>
<path d="M190.296 83.1066C190.296 83.1066 173.982 83.584 164.001 93.6653C154.02 103.747 154.145 119.579 154.145 119.579C154.145 119.579 170.449 119.091 180.441 109.02C190.434 98.9502 190.296 83.1066 190.296 83.1066Z" fill="#D2372E"/>
<g opacity="0.5">
<path d="M84.2786 21.7417C84.2786 21.7417 89.6293 17.6447 90.9898 15.0134C92.1331 12.7928 93.002 9.60635 91.8015 7.24146C91.5408 6.66805 91.1579 6.15475 90.6782 5.73532C90.1985 5.31588 89.6328 4.9998 89.0184 4.80788C88.4039 4.61596 87.7545 4.55254 87.113 4.62179C86.4714 4.69104 85.8523 4.89139 85.2962 5.20967C82.0035 7.19706 81.6491 13.9808 82.4951 17.245C82.5637 17.5004 84.2215 21.7861 84.2786 21.7417Z" fill="white"/>
<path d="M34.8311 55.916C35.0484 56.1159 38.867 58.7917 38.8898 58.7361C38.9127 58.6806 41.0164 52.452 40.6619 49.5209C40.3647 47.0227 39.2671 43.9695 36.9119 42.5816C36.3684 42.2444 35.7575 42.0226 35.1194 41.9309C34.4813 41.8392 33.8305 41.8796 33.2096 42.0495C32.5888 42.2193 32.012 42.5148 31.517 42.9165C31.0221 43.3182 30.6203 43.8171 30.338 44.3803C28.7145 47.7999 32.2816 53.64 34.8311 55.916Z" fill="white"/>
<path d="M146.885 27.9592C146.885 27.9592 127.312 47.5889 127.449 71.693C127.587 95.797 147.309 115.26 147.309 115.26C147.309 115.26 166.893 95.6416 166.745 71.5264C166.596 47.4113 146.885 27.9592 146.885 27.9592Z" fill="white"/>
<path d="M118.978 86.1266C119.235 85.8588 119.472 85.5731 119.687 85.2717C121.104 83.1732 122.328 80.12 121.413 77.6108C121.221 77.0125 120.902 76.4604 120.475 75.9906C120.048 75.5208 119.524 75.1441 118.936 74.8851C118.349 74.6261 117.712 74.4907 117.067 74.4878C116.422 74.4849 115.783 74.6146 115.193 74.8684C112.529 76.0897 111.226 80.231 110.952 83.6174C109.888 83.3842 108.928 83.2066 108.105 83.0622C107.762 82.2961 107.408 81.5301 107.042 80.7529C106.676 79.9757 106.39 79.143 106.047 78.3214C105.578 77.1223 105.167 75.8565 104.744 74.5908C106.287 73.9247 110.792 71.8706 112.472 70.072C114.153 68.2734 115.902 65.3644 115.376 62.7553C115.279 62.1367 115.049 61.545 114.7 61.0188C114.352 60.4927 113.892 60.0441 113.353 59.7023C112.813 59.3606 112.205 59.1335 111.569 59.0358C110.932 58.9382 110.282 58.9723 109.66 59.1358C105.933 60.2461 103.749 66.6635 103.68 70.0276C103.68 70.1275 103.68 70.8381 103.806 71.693C103.44 70.4495 103.052 69.206 102.72 67.9292C101.76 64.3208 100.902 60.6125 100.033 56.9041C99.8503 56.1381 99.656 55.3609 99.473 54.5948C100.776 54.0285 105.681 51.8524 107.476 49.9649C109.271 48.0775 110.906 45.2574 110.38 42.6482C110.283 42.0296 110.053 41.4379 109.704 40.9117C109.356 40.3856 108.896 39.937 108.357 39.5952C107.817 39.2535 107.209 39.0264 106.572 38.9288C105.936 38.8311 105.286 38.8652 104.664 39.0287C100.948 40.139 98.7642 46.5564 98.6842 49.9205C98.6842 50.0315 98.7528 50.8865 98.8442 51.8413C98.3412 49.8317 97.8153 47.8332 97.2207 45.868C96.2341 42.4864 95.0117 39.1738 93.5622 35.9532C94.031 35.7645 99.8389 33.3219 101.794 31.2235C103.52 29.3582 105.224 26.5159 104.686 23.9068C104.59 23.2882 104.359 22.6964 104.011 22.1703C103.662 21.6442 103.203 21.1955 102.663 20.8538C102.123 20.5121 101.515 20.2849 100.879 20.1873C100.242 20.0897 99.5919 20.1237 98.97 20.2873C95.2543 21.3975 93.0706 27.8149 92.9906 31.1791C92.9906 31.4122 93.2764 34.5099 93.4136 35.6202C93.409 35.5833 93.409 35.546 93.4136 35.5091C91.9132 32.3828 90.1303 29.3918 88.0858 26.5714C86.2674 24.0439 84.3015 21.6196 82.1978 19.3102C80.2657 17.0897 78.3678 15.291 76.6757 13.6589C75.7497 12.7818 74.8808 11.9935 74.069 11.2718H74.1491C74.2177 11.2718 72.3426 7.07499 72.194 6.83073C70.4562 3.92181 65.3342 -0.708038 61.5499 0.0913603C60.9202 0.226232 60.327 0.488899 59.8093 0.86212C59.2915 1.23534 58.8608 1.71068 58.5456 2.25694C58.2303 2.80319 58.0376 3.40802 57.98 4.03172C57.9224 4.65542 58.0013 5.28389 58.2115 5.87589C59.0576 8.40732 61.9387 10.106 64.3739 10.9276C66.8091 11.7493 72.3769 11.3607 73.7146 11.2385C74.5378 12.0157 75.4181 12.8484 76.3671 13.7811C78.0248 15.4465 79.877 17.345 81.752 19.5323C82.255 20.1207 82.7695 20.7647 83.2725 21.3864C82.1978 20.5093 80.6887 19.3435 80.5286 19.2436C77.6132 17.445 70.8678 15.6241 67.8952 18.0223C67.4036 18.4335 67.0076 18.9417 66.7338 19.5129C66.4599 20.0842 66.3143 20.7055 66.3067 21.3356C66.2992 21.9657 66.4298 22.5901 66.6899 23.1674C66.9499 23.7448 67.3335 24.2617 67.8152 24.684C69.7588 26.5492 73.1315 26.7713 75.6925 26.4049C78.2535 26.0385 83.1239 23.0741 84.1643 22.4856C85.3076 23.8624 86.3709 25.3168 87.4341 26.9267C89.3881 29.737 91.083 32.7093 92.4989 35.8089C92.579 35.9866 92.6361 36.1864 92.7162 36.3641C92.2588 35.8422 89.5378 33.1776 89.2863 33.0332C86.5881 30.9237 80.1399 28.4034 76.8587 30.4685C76.3289 30.8257 75.8829 31.2877 75.5499 31.8242C75.217 32.3607 75.0047 32.9594 74.927 33.5812C74.8493 34.203 74.9078 34.8337 75.0989 35.432C75.2899 36.0302 75.6091 36.5825 76.0355 37.0524C77.7619 39.1175 81.0774 39.6949 83.6613 39.6061C86.6453 39.5061 92.5104 36.6305 92.7276 36.5195C94.046 39.6665 95.1535 42.8931 96.0432 46.1789C96.7063 48.6104 97.2894 51.0974 97.8381 53.5955C97.2322 52.9294 94.6941 50.4534 94.4883 50.2647C91.7901 48.1663 85.3419 45.6349 82.0607 47.7111C81.5309 48.0683 81.0849 48.5303 80.7519 49.0668C80.419 49.6032 80.2067 50.202 80.129 50.8238C80.0512 51.4456 80.1098 52.0763 80.3009 52.6746C80.4919 53.2728 80.8111 53.825 81.2375 54.295C82.9639 56.349 86.2794 56.9375 88.8633 56.8486C91.7787 56.7376 97.4151 54.0063 97.8839 53.7732L98.6384 57.1928C99.4273 60.9122 100.205 64.6428 101.085 68.2956C101.394 69.5613 101.737 70.8048 102.08 72.0483C101.131 71.0824 99.3702 69.3614 99.1987 69.2282C96.5005 67.1298 90.0523 64.5984 86.771 66.6746C86.2412 67.0318 85.7952 67.4938 85.4623 68.0303C85.1294 68.5667 84.9171 69.1655 84.8394 69.7873C84.7616 70.4091 84.8202 71.0398 85.0112 71.638C85.2023 72.2363 85.5215 72.7885 85.9479 73.2585C87.6742 75.3125 90.9898 75.9009 93.5736 75.801C96.1575 75.7011 100.959 73.5139 102.308 72.881C102.892 74.9461 103.52 76.9779 104.241 78.9542C104.572 79.798 104.847 80.6862 105.212 81.4745L105.761 82.7402L105.087 82.6403C105.087 82.6403 105.029 83.8172 105.144 85.7269C102.297 83.7617 98.1926 82.063 95.5172 83.251C94.9382 83.5262 94.4257 83.9171 94.0132 84.3982C93.6007 84.8793 93.2977 85.4396 93.1238 86.0425C92.95 86.6453 92.9094 87.277 93.0047 87.8962C93.0999 88.5153 93.3289 89.1079 93.6765 89.6351C93.8445 89.9215 94.0438 90.1896 94.271 90.4345C94.7756 93.3538 96.0431 96.0986 97.9525 98.4062C98.1011 98.5617 100.033 100.305 101.039 101.171C100.068 100.649 99.0958 100.149 98.0897 99.5942C96.6377 98.817 95.1285 97.9399 93.6537 97.0961L91.3671 95.6972C90.5896 95.2419 89.9037 94.709 89.1605 94.2094C88.0858 93.4655 87.0111 92.6328 85.9479 91.8112C86.8511 90.4122 89.4463 86.2598 89.8236 83.8838C90.2009 81.5078 89.9951 78.1326 88.0858 76.234C87.6567 75.7615 87.1289 75.383 86.5375 75.1238C85.9462 74.8645 85.3048 74.7304 84.6559 74.7304C84.0071 74.7304 83.3657 74.8645 82.7744 75.1238C82.183 75.383 81.6552 75.7615 81.2261 76.234C78.7337 79.1207 80.5744 85.6714 82.4265 88.5137C82.4265 88.6136 82.941 89.1687 83.4783 89.8349C82.4608 89.0022 81.4433 88.1695 80.4372 87.2813C77.5904 84.7831 74.7207 82.1518 71.9311 79.5093L70.1475 77.8773C70.925 76.7115 73.7718 72.2704 74.1719 69.75C74.5721 67.2297 74.3434 63.9988 72.4341 62.0891C72.005 61.6166 71.4772 61.2381 70.8858 60.9789C70.2944 60.7196 69.653 60.5855 69.0042 60.5855C68.3554 60.5855 67.714 60.7196 67.1226 60.9789C66.5313 61.2381 66.0035 61.6166 65.5743 62.0891C63.082 64.9759 64.9227 71.5265 66.7176 74.3799C66.7862 74.4798 67.335 75.146 67.9524 75.8898C66.3861 74.4909 64.8083 73.1031 63.1963 71.7818C60.453 69.4927 57.5539 67.3858 54.5187 65.4755C54.8045 65.0647 58.2572 59.9241 58.6917 57.1262C59.0804 54.6392 58.8632 51.375 56.9539 49.4653C56.5247 48.9927 55.9969 48.6143 55.4056 48.355C54.8142 48.0958 54.1728 47.9617 53.524 47.9617C52.8752 47.9617 52.2338 48.0958 51.6424 48.355C51.0511 48.6143 50.5233 48.9927 50.0941 49.4653C47.6017 52.352 49.4424 58.9026 51.2374 61.7561C51.3632 61.9559 53.3525 64.3652 54.0842 65.1979L53.9813 65.1313C50.9559 63.3204 47.7684 61.7783 44.4577 60.5236C41.5064 59.3911 38.4908 58.4236 35.4256 57.6258C32.5903 56.8597 29.9493 56.3268 27.6055 55.8716C26.3364 55.6384 25.1703 55.4386 24.0842 55.272C24.0842 55.272 20.1855 52.7295 19.9226 52.6074C16.8242 51.1085 9.91872 49.9871 7.22054 52.6851C6.77096 53.1445 6.42784 53.6921 6.21424 54.2909C6.00064 54.8898 5.9215 55.5261 5.98215 56.1572C6.04279 56.7882 6.24182 57.3994 6.56586 57.9495C6.88989 58.4996 7.33142 58.9761 7.86079 59.3468C9.99875 61.0011 13.3715 60.8789 15.8639 60.2461C18.3562 59.6132 22.7236 56.3379 23.8669 55.5163C25.0102 55.7161 26.1535 55.9382 27.5255 56.2047C29.8121 56.7154 32.4759 57.3149 35.277 58.1254C36.0316 58.3364 36.8205 58.6029 37.5636 58.8471C36.1688 58.7028 34.248 58.5362 34.0651 58.5362C30.6352 58.5918 23.947 60.6902 22.8265 64.2875C22.6581 64.8898 22.6222 65.5199 22.7214 66.1366C22.8206 66.7533 23.0525 67.3428 23.402 67.8666C23.7515 68.3904 24.2108 68.8367 24.7499 69.1766C25.289 69.5164 25.8958 69.7421 26.5308 69.8389C29.2175 70.3496 32.1444 68.7286 34.0765 67.0632C36.0087 65.3978 38.4211 60.3349 38.9127 59.2912C40.6276 59.8575 42.3426 60.4681 44.149 61.212C47.3911 62.5228 50.5057 64.1132 53.4554 65.964C53.6155 66.0639 53.787 66.1971 53.947 66.3082C53.2725 66.1194 49.4882 65.3533 49.2138 65.3311C45.7839 65.0203 38.9241 66.4414 37.3921 69.85C37.1518 70.4321 37.0412 71.057 37.0676 71.6837C37.0939 72.3103 37.2567 72.9244 37.545 73.4855C37.8334 74.0467 38.2409 74.5422 38.7407 74.9394C39.2405 75.3365 39.8212 75.6264 40.4447 75.7899C43.0628 76.5782 46.1612 75.2903 48.2649 73.8247C50.6886 72.1371 53.9813 66.5968 54.0614 66.3859C56.9467 68.3094 59.7037 70.4083 62.3159 72.6701C64.2481 74.3355 66.146 76.1119 68.0324 77.8994C67.1406 77.6774 63.6193 76.9557 63.3563 76.9335C59.9265 76.6226 53.0667 78.0438 51.5347 81.4634C51.2963 82.045 51.1872 82.6688 51.2146 83.2942C51.2419 83.9195 51.405 84.5322 51.6932 85.092C51.9815 85.6518 52.3883 86.1461 52.8871 86.5425C53.3858 86.939 53.9652 87.2286 54.5873 87.3923C57.2054 88.1806 60.3037 86.8927 62.4074 85.4271C64.774 83.7839 67.9181 78.4879 68.181 78.0438C69.0385 78.8543 69.896 79.6648 70.742 80.4864C73.5202 83.1732 76.287 85.8712 79.111 88.4471C80.0827 89.3464 81.0774 90.1902 82.0721 91.0451C80.7344 90.7453 78.2878 90.2568 78.0705 90.2346C74.6407 89.9237 67.7809 91.3449 66.2489 94.7645C66.0105 95.346 65.9014 95.9699 65.9288 96.5953C65.9561 97.2206 66.1192 97.8333 66.4075 98.3931C66.6957 98.9529 67.1025 99.4472 67.6013 99.8437C68.1 100.24 68.6794 100.53 69.3015 100.693C71.9082 101.493 75.018 100.194 77.1102 98.7393C79.2024 97.2849 81.9692 92.866 82.7238 91.6224C84.393 93.0214 86.0736 94.387 87.8 95.6527C88.5546 96.1746 89.2863 96.763 90.0866 97.2293L92.316 98.6727C93.8709 99.6164 95.3115 100.482 96.7863 101.315C97.518 101.748 98.2269 102.137 98.9586 102.536C97.6438 102.037 95.5287 101.293 95.3572 101.237C91.9959 100.427 85.0103 100.771 82.9639 103.969C82.6361 104.509 82.4298 105.11 82.3585 105.733C82.2872 106.356 82.3525 106.987 82.5501 107.583C82.7478 108.18 83.0732 108.729 83.5051 109.195C83.9371 109.661 84.4656 110.033 85.0561 110.286C87.5142 111.452 90.7726 110.63 93.0592 109.498C95.6087 108.243 99.4387 103.647 99.9189 103.08C101.702 104.069 103.44 105.001 105.087 105.856C109.477 108.143 113.318 109.964 116.291 111.319C125.963 119.446 139.568 120.334 139.568 120.334C139.568 120.334 140.289 104.502 130.696 94.0873C127.419 90.6536 123.423 87.9394 118.978 86.1266ZM101.714 101.571C102.011 100.915 104.332 95.8859 104.492 93.0547L106.093 92.7327C107.075 97.7318 109.119 102.477 112.095 106.667C110.334 105.86 108.429 104.957 106.379 103.958C104.904 103.214 103.326 102.414 101.714 101.571Z" fill="white"/>
<path d="M190.296 83.1066C190.296 83.1066 173.982 83.584 164.001 93.6653C154.02 103.747 154.145 119.579 154.145 119.579C154.145 119.579 170.449 119.091 180.441 109.02C190.434 98.9502 190.296 83.1066 190.296 83.1066Z" fill="white"/>
</g>
<path d="M147.697 93.31L163.715 79.3206L163.029 78.5767L147.686 91.9666L147.606 73.647L147.686 73.7026L161.245 54.4615L160.388 53.8953L147.606 72.0594L147.4 27.9592H146.382L146.508 57.8922L136.31 49.3209L135.635 50.0759L146.52 59.2246L146.611 80.6196L131.154 67.3407L130.468 68.0846L146.611 81.963L146.703 101.448L135.087 92.5995L134.458 93.3766L146.714 102.725L146.76 115.26H147.789L147.697 93.2989V93.31Z" fill="white"/>
<path d="M132.937 98.706L131.92 98.595L130.628 109.664L123.745 102.203H123.768L122.019 88.7913L121.001 88.9245L122.556 100.915L105.464 82.3517L104.698 83.0178L116.302 95.6084L108.951 95.6972L108.974 96.6964L117.206 96.5965L125.346 105.423L113.856 105.434V106.434L126.26 106.422L133.658 114.45L125.552 114.927L125.62 115.915L134.526 115.393L139.454 120.745L140.22 120.079L131.542 110.664L132.937 98.706Z" fill="white"/>
<path d="M171.649 102.659L185.277 99.9606L185.072 98.9836L172.884 101.393L190.662 83.4508L189.919 82.7625L177.857 94.9311L177.217 87.8253L176.2 87.9141L176.908 95.8859L168.448 104.424L167.579 93.299L166.55 93.3767L167.499 105.39L159.805 113.14L158.719 105.334L157.69 105.468L158.89 114.061L153.768 119.235L154.511 119.923L163.532 110.819L175.925 111.274L175.959 110.286L164.492 109.853L171.638 102.636L171.649 102.659Z" fill="white"/>
<path d="M178.612 64.0431C183.96 64.0431 188.296 59.788 188.296 54.5391C188.296 49.2902 183.96 45.0352 178.612 45.0352C173.264 45.0352 168.928 49.2902 168.928 54.5391C168.928 59.788 173.264 64.0431 178.612 64.0431Z" fill="#263238" stroke="#263238" stroke-linecap="round" stroke-linejoin="round"/>
<path d="M205.491 80.5419C205.491 80.5419 210.064 80.3532 211.207 88.225C212.351 96.0969 217.13 116.626 217.53 119.501C217.93 122.377 216.146 125.841 211.813 127.185C207.48 128.528 205.091 124.498 204.69 122.577C204.29 120.656 200.472 97.2737 200.472 97.2737L205.491 80.5419Z" fill="#263238" stroke="#263238" stroke-linecap="round" stroke-linejoin="round"/>
<path d="M160.982 99.683C160.982 99.683 140.952 107.91 140.952 110.897C140.952 113.883 153.288 143.095 153.288 143.095L206.44 129.627L200.483 97.2959C200.483 97.2959 192.572 87.7142 160.982 99.683Z" fill="#4D97CF" stroke="#263238" stroke-linecap="round" stroke-linejoin="round"/>
<path d="M179.252 82.0296C179.252 82.0296 173.536 85.4825 168.963 87.9695C164.389 90.4565 157.53 93.9206 157.53 100.838C157.53 107.755 162.674 135.19 162.674 138.065C162.58 139.349 162.645 140.638 162.869 141.907C162.869 141.329 197.648 130.193 197.648 130.193C198.718 125.777 200.039 121.422 201.604 117.148C203.387 112.929 201.604 109.276 203.582 102.37C205.559 95.4639 209.298 90.8562 207.732 85.7157C206.165 80.5751 205.754 80.7305 200.026 80.5307C194.298 80.3308 184.786 80.2975 179.252 82.0296Z" fill="#263238" stroke="#263238" stroke-linecap="round" stroke-linejoin="round"/>
<path d="M176.645 79.0096C176.645 79.0096 174.073 80.3531 173.078 86.4929C172.434 91.3941 172.105 96.3296 172.095 101.271C172.095 101.271 182.762 95.5194 184.351 95.3196C185.94 95.1197 197.396 99.7607 197.396 99.7607C196.466 94.6789 195.144 89.6722 193.44 84.7831C191.074 78.621 179.012 76.3228 176.645 79.0096Z" fill="white" stroke="#263238" stroke-linecap="round" stroke-linejoin="round"/>
<path d="M174.668 77.4775L174.862 78.1326C175.628 80.7306 178.498 90.3456 180.201 95.1309C182.179 100.682 185.14 103.003 185.14 103.003L188.101 91.5225C188.101 91.5225 176.44 80.5419 174.668 77.4775Z" fill="white" stroke="#263238" stroke-linecap="round" stroke-linejoin="round"/>
<path d="M185.117 52.9072C185.117 52.9072 175.434 51.375 172.072 63.6546C168.711 75.9343 179.584 86.493 182.739 90.5233C185.895 94.5536 190.468 95.8415 193.029 91.8667C196.985 85.7269 198.174 82.6514 198.745 74.5909C199.317 66.5303 198.345 61.1565 194.595 56.9375C193.383 55.6724 191.916 54.6621 190.286 53.969C188.656 53.2758 186.897 52.9144 185.117 52.9072Z" fill="white" stroke="#263238" stroke-linecap="round" stroke-linejoin="round"/>
<path d="M194.629 56.9375C193.416 55.6711 191.947 54.66 190.315 53.9667C188.683 53.2735 186.922 52.9129 185.14 52.9072C185.14 52.9072 175.456 51.375 172.095 63.6546C171.175 67.1375 171.266 70.7999 172.358 74.2356C172.712 73.3584 173.25 72.6701 174.073 72.6701C176.44 72.6701 176.645 75.9343 177.434 75.7455C178.223 75.5568 181.379 72.8699 180.796 70.3718C180.213 67.8737 180.99 66.7301 185.14 66.7301C189.29 66.7301 190.274 68.451 191.657 68.0735C193.04 67.6961 194.035 64.9981 195.418 64.9981C196.036 65.0191 196.644 65.1596 197.205 65.4112C197.767 65.6628 198.271 66.0206 198.688 66.4636C198.383 62.9568 196.965 59.6283 194.629 56.9375Z" fill="#263238" stroke="#263238" stroke-linecap="round" stroke-linejoin="round"/>
<path d="M177.434 76.9001C177.434 76.9001 175.845 73.0586 174.073 72.67C172.301 72.2814 171.306 73.4472 172.29 76.7003C173.273 79.9534 174.668 81.3079 175.456 81.3079C176.245 81.3079 176.6 80.1977 176.6 80.1977" fill="white"/>
<path d="M177.434 76.9001C177.434 76.9001 175.845 73.0586 174.073 72.67C172.301 72.2814 171.306 73.4472 172.29 76.7003C173.273 79.9534 174.668 81.3079 175.456 81.3079C176.245 81.3079 176.6 80.1977 176.6 80.1977" stroke="#263238" stroke-linecap="round" stroke-linejoin="round"/>
<path d="M163.006 116.237C163.006 116.237 163.989 122.388 168.345 125.119C172.701 127.851 178.635 126.463 178.635 126.463" stroke="#263238" stroke-linecap="round" stroke-linejoin="round"/>
<path d="M185.117 103.003C185.117 103.003 187.884 113.173 187.29 117.581" stroke="#263238" stroke-linecap="round" stroke-linejoin="round"/>
<path d="M126.077 100.405C126.077 100.405 128.478 101.371 130.285 107.399C132.091 113.428 136.882 124.498 138.082 128.772C139.283 133.047 138.882 138.487 133.68 139.875C128.478 141.263 122.876 127.44 122.076 126.274C121.276 125.108 119.275 114.228 120.281 108.399C121.287 102.57 123.882 99.6387 126.077 100.405Z" fill="white" stroke="#263238" stroke-linecap="round" stroke-linejoin="round"/>
<path d="M97.5866 120.589C97.5866 120.589 66.3289 150.201 66.3289 154.642C66.3289 159.083 84.7245 195.811 89.8693 194.978C95.0142 194.145 118.166 170.185 118.166 170.185L97.5866 120.589Z" fill="#4D97CF" stroke="#263238" stroke-linecap="round" stroke-linejoin="round"/>
<path d="M98.4669 105.079C92.5276 110.182 86.915 115.632 81.6605 121.4C74.6521 129.361 75.258 142.773 77.4531 151.899C79.6483 161.026 83.6612 186.873 88.6574 187.85C93.6536 188.827 97.6666 178.524 106.47 171.196C115.273 163.868 122.282 157.595 122.876 152.732C123.471 147.869 122.682 132.336 123.082 131.17C124.034 125.448 124.569 119.668 124.683 113.872C124.683 108.243 120.281 102.026 115.879 100.66C111.478 99.2945 100.262 103.736 98.4669 105.079Z" fill="white" stroke="#263238" stroke-linecap="round" stroke-linejoin="round"/>
<path d="M138.997 287.852C138.997 287.852 132.526 300.776 123.265 309.003C114.004 317.23 99.473 327.412 99.473 327.412C99.473 327.412 114.793 332.119 118.029 332.508C121.264 332.896 120.441 334.462 116.817 336.038C113.193 337.615 108.745 338.781 98.6613 338.781C88.5774 338.781 82.1292 338.781 81.7176 336.427C81.306 334.073 87.7771 328.2 92.6132 323.503C97.4494 318.807 116.005 289.418 117.617 287.852C119.229 286.287 130.525 281.191 138.997 287.852Z" fill="white" stroke="#263238" stroke-linecap="round" stroke-linejoin="round"/>
<path d="M118.029 332.508C115.365 332.186 104.515 328.944 100.765 327.811L97.861 334.073C95.669 334.417 93.4246 334.261 91.3054 333.618C89.1862 332.974 87.2502 331.86 85.6506 330.365C83.2382 332.907 81.5004 335.172 81.7062 336.427C82.1178 338.781 88.566 338.781 98.6498 338.781C108.734 338.781 113.17 337.604 116.805 336.038C120.441 334.473 121.253 332.896 118.029 332.508Z" fill="#263238" stroke="#263238" stroke-linecap="round" stroke-linejoin="round"/>
<path d="M254.721 287.852C254.721 287.852 261.181 300.776 270.453 309.003C279.725 317.23 294.256 327.412 294.256 327.412C294.256 327.412 278.925 332.119 275.701 332.508C272.476 332.896 273.277 334.462 276.912 336.038C280.548 337.615 284.916 338.781 295.057 338.781C305.198 338.781 311.6 338.781 312 336.427C312.4 334.073 305.952 328.2 301.105 323.503C296.257 318.807 277.713 289.418 276.101 287.852C274.489 286.287 263.193 281.191 254.721 287.852Z" fill="white" stroke="#263238" stroke-linecap="round" stroke-linejoin="round"/>
<path d="M275.701 332.508C278.353 332.186 289.214 328.944 292.964 327.811L295.868 334.073C298.059 334.414 300.3 334.257 302.417 333.614C304.534 332.97 306.468 331.858 308.067 330.365C310.468 332.907 312.217 335.172 312 336.427C311.6 338.781 305.14 338.781 295.057 338.781C284.973 338.781 280.537 337.604 276.913 336.038C273.288 334.473 272.477 332.896 275.701 332.508Z" fill="#263238" stroke="#263238" stroke-linecap="round" stroke-linejoin="round"/>
<path d="M45.8182 293.337C45.8182 293.337 51.466 303.518 51.0659 307.049C50.7343 309.925 43.6802 331.886 41.1078 339.836C41.0067 340.149 40.9869 340.482 41.0502 340.805C41.1134 341.128 41.2577 341.431 41.4703 341.687C41.6829 341.943 41.9572 342.144 42.2689 342.272C42.5806 342.4 42.92 342.452 43.2572 342.422C43.659 342.387 44.0412 342.238 44.3563 341.993C44.6714 341.748 44.9054 341.419 45.0293 341.046L56.3136 307.438C56.3136 307.438 58.3258 305.084 64.7854 303.918C69.7245 303.008 94.3282 301.886 105.555 301.409C107.627 301.294 109.664 301.965 111.236 303.28C112.808 304.596 113.792 306.452 113.981 308.459C113.981 308.515 113.981 308.559 113.981 308.615C114.336 313.133 121.985 336.505 123.722 341.679C123.817 341.962 124.013 342.203 124.275 342.358C124.538 342.513 124.849 342.571 125.151 342.522C125.322 342.495 125.485 342.434 125.631 342.343C125.777 342.252 125.902 342.134 125.999 341.995C126.096 341.856 126.164 341.699 126.197 341.534C126.23 341.369 126.228 341.199 126.192 341.035C124.82 334.973 118.932 308.837 116.805 295.691C116.805 295.691 74.0461 297.645 64.3624 295.291C58.542 293.879 52.9703 291.634 47.8304 288.63C47.8304 288.63 45.418 288.641 45.8182 293.337Z" fill="#263238" stroke="#263238" stroke-linecap="round" stroke-linejoin="round"/>
<path d="M42.2053 224.4C42.2053 224.4 27.6741 268.656 30.0864 276.494C32.4988 284.333 44.2061 295.291 48.6421 295.291C53.0781 295.291 56.7138 252.213 56.7138 248.293C56.7138 244.374 49.0651 230.307 46.6299 224.4C44.1947 218.494 42.2053 224.4 42.2053 224.4Z" fill="#4D97CF" stroke="#263238" stroke-linecap="round" stroke-linejoin="round"/>
<path d="M121.596 290.595C121.447 295.036 120.738 298.433 118.829 298.433C115.205 298.433 75.6696 302.342 66.3975 301.953C57.1254 301.564 50.2656 296.923 50.2656 290.262C50.2656 283.6 50.6657 254.222 57.5255 250.292C64.3853 246.362 100.685 245.984 109.157 245.984C119.584 245.984 120.029 265.547 120.475 272.175C120.601 274.085 121.824 283.6 121.596 290.595Z" fill="#4D97CF" stroke="#263238" stroke-linecap="round" stroke-linejoin="round"/>
<path d="M111.169 290.983C111.169 290.983 136.985 291.772 138.997 287.852C141.009 283.933 138.997 275.706 133.76 274.141C128.524 272.575 106.733 273.752 106.733 273.752L111.169 290.983Z" fill="white" stroke="#263238" stroke-linecap="round" stroke-linejoin="round"/>
<path d="M48.6421 254.167C47.1069 259.401 46.4279 264.838 46.6299 270.277C47.0301 278.904 49.4539 287.519 61.4928 294.57C73.5317 301.62 113.124 293.393 113.124 293.393L110.3 242.076C110.3 242.076 84.0843 238.945 69.5644 241.687C55.0446 244.43 49.0651 252.601 48.6421 254.167Z" fill="#263238" stroke="#263238" stroke-linecap="round" stroke-linejoin="round"/>
<path d="M237.709 73.6137C234.806 76.5829 232.529 80.0758 231.009 83.8949C228.848 89.7793 221.714 107.411 221.931 110.764C222.149 114.117 225.167 118.325 228.197 116.015C231.226 113.706 238.566 101.326 239.001 100.693C239.435 100.06 239.87 91.2449 239.87 85.7823C239.87 80.3198 240.247 73.4028 237.709 73.6137Z" fill="white" stroke="#263238" stroke-linecap="round" stroke-linejoin="round"/>
<path d="M244.683 92.4662C247.05 92.0221 301.093 103.569 301.093 109.487C301.093 115.404 288.894 147.98 288.894 147.98L237.069 134.657C237.069 134.657 238.109 93.743 244.683 92.4662Z" fill="#4D97CF" stroke="#263238" stroke-linecap="round" stroke-linejoin="round"/>
<path d="M262.941 66.8966C262.941 66.8966 251.268 65.6309 243.048 69.6278C234.828 73.6248 234.839 80.3309 235.274 86.8371C235.708 93.3433 237.938 128.439 238.589 130.959C239.241 133.48 254.081 132.814 262.724 134.49C271.368 136.167 277.427 129.239 278.73 126.507C280.034 123.776 295.159 97.1183 295.159 91.4559C295.159 85.7935 288.894 75.0793 280.022 70.0386C274.897 67.0466 268.839 65.9322 262.941 66.8966Z" fill="white" stroke="#263238" stroke-linecap="round" stroke-linejoin="round"/>
<path d="M254.721 88.5137L257.099 93.5543L247.804 125.042L249.965 131.126L256.242 126.507L259.694 94.1872L264.451 89.1465L262.073 83.473L254.721 88.5137Z" fill="#263238" stroke="#263238" stroke-linecap="round" stroke-linejoin="round"/>
<path d="M255.373 75.5013C254.094 77.8651 253.009 80.3226 252.126 82.8513C251.543 85.6131 251.256 88.4259 251.268 91.245C251.268 91.245 258.185 88.0918 260.129 88.0918C262.072 88.0918 265.96 96.7075 265.96 96.7075C265.96 96.7075 271.802 88.3027 272.671 82.2739C273.54 76.2451 266.829 71.7818 262.072 71.7818C260.716 71.7694 259.381 72.1072 258.204 72.7608C257.027 73.4144 256.05 74.3602 255.373 75.5013Z" fill="white" stroke="#263238" stroke-linecap="round" stroke-linejoin="round"/>
<path d="M280.011 69.4169C280.011 69.4169 282.183 66.2637 282.606 69.2059C283.029 72.1482 280.445 74.4464 278.936 75.2902C278.554 75.5457 278.102 75.6824 277.638 75.6824C277.175 75.6824 276.722 75.5457 276.341 75.2902" fill="white"/>
<path d="M280.011 69.4169C280.011 69.4169 282.183 66.2637 282.606 69.2059C283.029 72.1482 280.445 74.4464 278.936 75.2902C278.554 75.5457 278.102 75.6824 277.638 75.6824C277.175 75.6824 276.722 75.5457 276.341 75.2902" stroke="#263238" stroke-linecap="round" stroke-linejoin="round"/>
<path d="M257.968 57.2371C257.968 57.2371 255.807 55.5606 254.538 58.9136C253.269 62.2667 255.407 66.4746 255.407 66.4746L257.568 62.0335" fill="white"/>
<path d="M257.968 57.2371C257.968 57.2371 255.807 55.5606 254.538 58.9136C253.269 62.2667 255.407 66.4746 255.407 66.4746L257.568 62.0335" stroke="#263238" stroke-linecap="round" stroke-linejoin="round"/>
<path d="M257.968 85.3715C257.87 85.6931 257.852 86.0326 257.916 86.3621C257.979 86.6917 258.122 87.0019 258.333 87.2674C258.544 87.5328 258.817 87.7459 259.129 87.8892C259.441 88.0325 259.784 88.1019 260.129 88.0917C262.941 88.3027 268.772 82.4293 269.207 81.1636C269.641 79.8979 257.968 85.3715 257.968 85.3715Z" fill="white" stroke="#263238" stroke-linecap="round" stroke-linejoin="round"/>
<path d="M268.132 44.4357C268.132 44.4357 260.563 47.7665 258.837 53.0403C257.111 58.3141 254.264 68.995 254.264 73.0253C254.264 77.0556 255.556 85.2383 258.368 86.4596C261.181 87.6809 270.476 81.8409 273.06 80.1643C275.643 78.4878 278.685 71.9816 281.932 68.1956C285.178 64.4095 287.762 57.4925 286.505 51.8301C285.247 46.1677 275.689 39.395 268.132 44.4357Z" fill="white" stroke="#263238" stroke-linecap="round" stroke-linejoin="round"/>
<path d="M286.505 51.7857C285.201 46.1122 275.689 39.3951 268.132 44.4357C268.132 44.4357 260.563 47.7665 258.837 53.0403C258.014 55.5385 256.95 59.2579 256.059 62.9107C257.534 60.6901 259.98 56.8597 260.129 55.9826C260.346 54.7169 260.346 54.5059 261.855 54.5059C263.364 54.5059 266.177 58.7028 270.076 59.5466C273.974 60.3904 279.153 59.7575 279.153 61.8559C279.153 63.9544 276.124 67.3185 278.067 68.3622C279.588 69.1838 278.227 72.0149 278.364 73.2474C279.442 71.4695 280.645 69.7666 281.966 68.1512C285.201 64.3763 287.797 57.4481 286.505 51.7857Z" fill="#263238" stroke="#263238" stroke-linecap="round" stroke-linejoin="round"/>
<path d="M258.185 64.7981C258.185 64.7981 265.754 68.3621 269.424 69.6278C273.094 70.8936 276.775 72.348 275.472 74.6574C274.169 76.9668 269.858 77.9882 267.263 76.9668C264.668 75.9453 265.319 70.6715 263.833 70.4605C262.347 70.2496 261.249 72.9809 258.437 72.9809C255.624 72.9809 252.595 68.784 253.029 65.8418C253.463 62.8996 258.185 64.7981 258.185 64.7981Z" fill="white" stroke="#263238" stroke-linecap="round" stroke-linejoin="round"/>
<path d="M276.124 72.5591L281.097 67.7294" stroke="#263238" stroke-linecap="round" stroke-linejoin="round"/>
<path d="M254.298 64.5872L256.882 58.9137" stroke="#263238" stroke-linecap="round" stroke-linejoin="round"/>
<path d="M314.664 109.109C314.664 109.109 300.327 121.5 296.611 125.086C292.896 128.672 292.724 135.567 296.257 137.11C299.79 138.654 310.948 132.303 312.709 130.926C314.47 129.549 319.26 109.964 314.664 109.109Z" fill="#263238" stroke="#263238" stroke-linecap="round" stroke-linejoin="round"/>
<path d="M350.506 140.086C350.506 140.086 369.771 158.783 365.918 164.767C362.065 170.752 325.091 189.46 325.091 189.46L318.151 160.282L350.506 140.086Z" fill="#4D97CF" stroke="#263238" stroke-linecap="round" stroke-linejoin="round"/>
<path d="M325.8 107.91C325.8 107.91 317.671 107.222 314.664 109.109C311.657 110.997 309.531 128.528 308.948 139.009C308.364 149.49 307.004 157.884 307.713 159.96C308.422 162.036 326.817 184.53 329.435 187.628C332.054 190.725 353.502 159.105 356.509 152.743C359.516 146.381 357.572 140.53 353.673 131.792C349.775 123.054 341.474 114.949 336.524 110.486C335.106 109.212 333.379 108.307 331.503 107.857C329.628 107.406 327.666 107.425 325.8 107.91Z" fill="#263238" stroke="#263238" stroke-linecap="round" stroke-linejoin="round"/>
<path d="M325.628 128.694L325.503 129.361C325.274 130.593 324.782 133.413 324.359 136.6C323.822 140.896 324.005 146.592 325.423 146.592C326.84 146.592 345.407 133.535 345.762 121.689C346.116 109.842 327.046 123.72 325.628 128.694Z" fill="white" stroke="#263238" stroke-linecap="round" stroke-linejoin="round"/>
<path d="M324.748 105.334C324.748 105.334 322.976 111.685 322.976 112.718C323.109 113.937 323.347 115.144 323.685 116.326C323.685 116.326 320.678 120.967 321.032 121.478C321.452 121.981 321.923 122.443 322.438 122.854C322.438 122.854 322.095 129.383 323.502 130.76C324.908 132.136 330.762 131.27 330.762 131.27C330.762 131.27 327.926 134.712 331.116 134.879C334.306 135.045 342.789 128.217 345.27 124.231C347.751 120.245 347.557 113.062 345.27 109.453C342.983 105.845 329.344 100.86 324.748 105.334Z" fill="white" stroke="#263238" stroke-linecap="round" stroke-linejoin="round"/>
<path d="M340.137 92.9548C340.137 92.9548 326.509 94.6757 324.039 99.8274C321.57 104.979 327.217 111.341 331.288 112.207C333.489 112.71 335.749 112.938 338.01 112.884C338.01 112.884 333.768 116.493 336.421 117.325C339.073 118.158 340.308 117.669 340.308 118.524C340.308 119.379 337.656 122.133 339.954 122.31C342.252 122.488 342.961 118.524 344.378 119.39C345.796 120.256 343.852 123.676 344.561 123.832C345.27 123.987 351.993 117.17 354.851 109.909C357.709 102.647 353.788 98.2286 350.964 95.8304C348.14 93.4322 343.498 92.0998 340.137 92.9548Z" fill="#263238" stroke="#263238" stroke-linecap="round" stroke-linejoin="round"/>
<path d="M340.137 123.021C340.137 123.021 342.618 117.47 344.207 118.735C345.796 120.001 345.27 123.887 343.498 125.264C341.726 126.64 338.365 125.086 338.365 125.086" fill="white"/>
<path d="M340.137 123.021C340.137 123.021 342.618 117.47 344.207 118.735C345.796 120.001 345.27 123.887 343.498 125.264C341.726 126.64 338.365 125.086 338.365 125.086" stroke="#263238" stroke-linecap="round" stroke-linejoin="round"/>
<path d="M324.393 138.143L330.053 135.401L329.172 143.639" fill="white"/>
<path d="M324.393 138.143L330.053 135.401L329.172 143.639" stroke="#263238" stroke-linecap="round" stroke-linejoin="round"/>
<path d="M369.417 284.066C369.417 284.066 359.241 303.518 359.641 307.049C359.973 309.925 367.027 331.886 369.611 339.835C369.709 340.15 369.727 340.483 369.662 340.806C369.597 341.129 369.452 341.431 369.238 341.686C369.025 341.942 368.75 342.143 368.439 342.271C368.127 342.399 367.787 342.451 367.45 342.422C367.048 342.387 366.666 342.237 366.351 341.993C366.036 341.748 365.802 341.419 365.678 341.046L354.405 307.438C354.405 307.438 352.381 305.084 345.933 303.918C340.983 303.008 316.39 301.886 305.152 301.409C303.082 301.297 301.048 301.969 299.479 303.284C297.909 304.599 296.927 306.454 296.737 308.459C296.732 308.511 296.732 308.563 296.737 308.615C296.371 313.133 288.734 336.505 286.985 341.679C286.89 341.962 286.694 342.203 286.432 342.358C286.169 342.513 285.859 342.571 285.556 342.522C285.385 342.495 285.222 342.433 285.076 342.343C284.93 342.252 284.805 342.134 284.708 341.995C284.611 341.855 284.544 341.699 284.51 341.534C284.477 341.369 284.479 341.199 284.515 341.035C285.887 334.972 291.775 308.837 293.913 295.691C293.913 295.691 336.661 297.645 346.345 295.291C356.029 292.937 367.416 279.359 367.416 279.359C367.416 279.359 369.817 279.359 369.417 284.066Z" fill="#263238" stroke="#263238" stroke-linecap="round" stroke-linejoin="round"/>
<path d="M376.242 219.571C376.242 219.571 387.378 264.748 384.371 272.386C381.364 280.025 368.879 290.151 364.455 289.818C360.03 289.485 359.653 246.273 359.95 242.364C360.247 238.456 368.959 224.944 371.817 219.204C374.676 213.464 376.242 219.571 376.242 219.571Z" fill="#4D97CF" stroke="#263238" stroke-linecap="round" stroke-linejoin="round"/>
<path d="M289.157 290.595C289.294 295.036 290.015 298.433 291.913 298.433C295.548 298.433 335.072 302.342 344.355 301.953C353.639 301.564 360.453 296.923 360.453 290.262C360.453 283.6 360.041 254.167 353.182 250.292C346.322 246.417 310.022 245.984 301.55 245.984C291.124 245.984 290.666 265.547 290.232 272.175C290.106 274.085 288.894 283.6 289.157 290.595Z" fill="#4D97CF" stroke="#263238" stroke-linecap="round" stroke-linejoin="round"/>
<path d="M357.572 254.156C357.572 254.156 354.234 262.072 354.234 268.356C354.234 274.64 351.101 287.009 344.63 290.65C338.159 294.292 330.91 296.335 320.198 294.914C309.485 293.493 286.173 289.84 286.173 289.84C286.173 289.84 310.182 273.186 316.23 264.903C322.278 256.62 324.371 249.703 329.173 245.04C333.974 240.377 357.149 235.714 357.572 254.156Z" fill="#263238" stroke="#263238" stroke-linecap="round" stroke-linejoin="round"/>
<path d="M213.917 317.108C284.794 317.108 342.252 273.986 342.252 220.792C342.252 167.598 284.794 124.475 213.917 124.475C143.039 124.475 85.582 167.598 85.582 220.792C85.582 273.986 143.039 317.108 213.917 317.108Z" fill="#263238" stroke="#263238" stroke-linecap="round" stroke-linejoin="round"/>
<path d="M213.917 314.221C284.794 314.221 342.252 271.099 342.252 217.905C342.252 164.711 284.794 121.589 213.917 121.589C143.039 121.589 85.582 164.711 85.582 217.905C85.582 271.099 143.039 314.221 213.917 314.221Z" fill="#4D97CF" stroke="#263238" stroke-linecap="round" stroke-linejoin="round"/>
<path d="M277.507 158.761L293.787 176.114L264.942 196.21L248.319 176.625L277.507 158.761Z" fill="white" stroke="#263238" stroke-linecap="round" stroke-linejoin="round"/>
<path d="M189.45 160.26L162.812 173.561L186.409 201.64L213.803 183.909L189.45 160.26Z" fill="white" stroke="#263238" stroke-linecap="round" stroke-linejoin="round"/>
<path d="M229.843 188.383L203.216 201.684L226.802 229.763L254.195 212.032L229.843 188.383Z" fill="white" stroke="#263238" stroke-linecap="round" stroke-linejoin="round"/>
<path d="M226.87 190.426L198.185 198.753L216.066 230.562L246.341 218.005L226.87 190.426Z" fill="white" stroke="#263238" stroke-linecap="round" stroke-linejoin="round"/>
<path d="M192.64 144.483C192.64 144.483 197.819 142.606 197.819 143.861C197.819 145.115 197.819 146.37 195.533 147.003C193.246 147.636 185.506 146.059 187.45 145.115C189.108 144.524 190.883 144.307 192.64 144.483Z" fill="white" stroke="#263238" stroke-linecap="round" stroke-linejoin="round"/>
<path d="M163.989 90.5232C163.989 90.5232 157.278 92.8215 153.917 96.8629C150.555 100.904 148.978 111.441 148.2 116.048C147.423 120.656 143.856 138.121 145.834 140.23C147.812 142.34 168.951 149.446 173.101 150.6C177.251 151.755 182.248 153.476 184.969 153.287C186.957 153.01 188.851 152.288 190.502 151.178C190.502 151.178 195.247 153.287 196.424 153.287C197.602 153.287 199.191 151.178 197.808 149.057C196.424 146.936 192.572 143.861 190.399 143.861C188.227 143.861 180.224 145.027 180.224 145.027C180.224 145.027 166.584 138.309 162.629 135.623C160.149 133.912 157.834 131.987 155.712 129.871L163.818 105.301" fill="#263238"/>
<path d="M163.989 90.5232C163.989 90.5232 157.278 92.8215 153.917 96.8629C150.555 100.904 148.978 111.441 148.2 116.048C147.423 120.656 143.856 138.121 145.834 140.23C147.812 142.34 168.951 149.446 173.101 150.6C177.251 151.755 182.248 153.476 184.969 153.287C186.957 153.01 188.851 152.288 190.502 151.178C190.502 151.178 195.247 153.287 196.424 153.287C197.602 153.287 199.191 151.178 197.808 149.057C196.424 146.936 192.572 143.861 190.399 143.861C188.227 143.861 180.224 145.027 180.224 145.027C180.224 145.027 166.584 138.309 162.629 135.623C160.149 133.912 157.834 131.987 155.712 129.871L163.818 105.301" stroke="#263238" stroke-linecap="round" stroke-linejoin="round"/>
<path d="M190.376 143.861C188.204 143.861 180.201 145.027 180.201 145.027C180.201 145.027 178.692 144.294 176.543 143.206C174.873 144.306 173.595 145.88 172.884 147.714C172.631 148.597 172.488 149.506 172.461 150.423L173.078 150.6C177.229 151.711 182.225 153.476 184.946 153.287C186.934 153.01 188.828 152.288 190.479 151.178C190.479 151.178 195.224 153.287 196.402 153.287C197.579 153.287 199.168 151.178 197.785 149.057C196.402 146.936 192.549 143.861 190.376 143.861Z" fill="white" stroke="#263238" stroke-linecap="round" stroke-linejoin="round"/>
<path d="M99.8617 109.542C99.2558 109.72 94.6597 114.594 94.2596 120.234C93.8594 125.874 98.2611 135.19 99.0614 136.744C99.8617 138.298 98.867 141.019 100.868 141.019C102.869 141.019 109.077 132.081 109.077 132.081C109.077 132.081 116.074 132.469 116.874 130.726C117.674 128.983 111.272 119.257 109.877 115.182C108.482 111.108 103.269 108.576 99.8617 109.542Z" fill="white" stroke="#263238" stroke-linecap="round" stroke-linejoin="round"/>
<path d="M99.4616 106.633C99.4755 109.306 99.2073 111.974 98.6613 114.594C97.861 117.314 97.6666 118.68 100.662 122.954C103.67 126.796 106.948 130.432 110.472 133.835C110.472 133.835 110.872 129.394 111.077 126.84C111.283 124.287 115.273 122.755 116.074 121.589C116.874 120.423 111.672 119.646 109.671 116.148C107.67 112.651 107.67 106.633 104.869 106.045C102.068 105.456 100.513 103.913 99.4616 106.633Z" fill="white" stroke="#263238" stroke-linecap="round" stroke-linejoin="round"/>
<path d="M126.283 94.7756C126.283 94.7756 131.885 93.2212 130.856 87.7809C129.827 82.3405 119.652 78.2658 108.654 79.2317C97.6552 80.1977 92.6475 87.2035 91.6414 94.1982C90.6353 101.193 98.2383 107.988 99.0386 109.154C99.8389 110.319 98.8442 111.485 101.245 112.262C102.879 112.708 104.608 112.708 106.241 112.262C106.833 113.089 107.659 113.731 108.618 114.112C109.578 114.492 110.631 114.594 111.649 114.405C115.079 113.628 114.05 107.022 115.456 106.245C116.863 105.468 117.857 102.914 122.053 100.605C126.249 98.2951 126.283 94.7756 126.283 94.7756Z" fill="#263238" stroke="#263238" stroke-linecap="round" stroke-linejoin="round"/>
<path d="M109.271 110.908C109.271 110.908 109.671 107.799 105.67 107.411C101.668 107.022 102.674 110.741 103.475 112.462C104.275 114.183 107.064 115.571 107.064 115.571C107.064 115.571 108.071 120.012 109.477 120.423C110.883 120.834 119.275 124.309 120.91 123.754C122.545 123.199 124.111 115.982 124.111 115.982C124.111 115.982 126.912 114.616 126.912 113.262C126.912 111.907 125.666 107.988 125.666 107.066C125.666 106.145 127.872 103.369 128.273 101.237C128.673 99.1057 126.272 94.8201 126.272 94.8201C126.272 94.8201 125.266 98.3174 122.065 98.3174C119.896 98.269 117.743 97.9443 115.662 97.3515C115.662 97.3515 117.263 101.426 116.062 103.18C114.862 104.935 112.861 104.535 112.461 105.312C112.061 106.089 112.266 109.587 112.061 110.364C111.855 111.141 110.472 113.817 109.271 110.908Z" fill="white" stroke="#263238" stroke-linecap="round" stroke-linejoin="round"/>
<path d="M128.684 132.081C128.684 132.081 129.679 139.853 131.68 142.962C133.68 146.07 142.084 158.117 142.084 158.117C142.084 158.117 141.489 162.203 142.084 163.368C143.282 165.815 144.287 168.346 145.09 170.94C145.09 171.718 146.691 172.306 146.885 171.14C147.019 170.239 147.088 169.33 147.091 168.42L150.521 173.472C150.521 173.472 152.328 174.826 152.922 173.661C153.517 172.495 153.128 166.277 153.528 163.757C153.928 161.237 151.927 157.728 150.327 156.174C148.726 154.619 146.725 151.899 146.119 151.322C145.514 150.745 142.918 141.607 141.718 135.389C140.517 129.172 137.316 125.286 134.915 124.897" fill="white"/>
<path d="M128.684 132.081C128.684 132.081 129.679 139.853 131.68 142.962C133.68 146.07 142.084 158.117 142.084 158.117C142.084 158.117 141.489 162.203 142.084 163.368C143.282 165.815 144.287 168.346 145.091 170.94C145.091 171.718 146.691 172.306 146.885 171.14C147.019 170.239 147.088 169.33 147.091 168.42L150.521 173.472C150.521 173.472 152.328 174.826 152.922 173.661C153.517 172.495 153.128 166.277 153.528 163.757C153.928 161.237 151.927 157.728 150.327 156.174C148.726 154.619 146.725 151.899 146.119 151.322C145.514 150.745 142.918 141.607 141.718 135.389C140.517 129.172 137.316 125.286 134.915 124.897" stroke="#263238" stroke-linecap="round" stroke-linejoin="round"/>
<path d="M152.888 173.683C153.494 172.573 153.094 166.299 153.494 163.779C153.894 161.259 151.893 157.75 150.292 156.196C149.139 155.006 148.051 153.757 147.034 152.454C144.615 153.117 142.443 154.443 140.78 156.274L142.084 158.139C142.084 158.139 141.489 162.225 142.084 163.391C143.282 165.837 144.287 168.368 145.091 170.963C145.091 171.74 146.691 172.328 146.885 171.162C147.019 170.262 147.088 169.353 147.091 168.442L150.521 173.494C150.521 173.494 152.293 174.793 152.888 173.683Z" fill="white" stroke="#263238" stroke-linecap="round" stroke-linejoin="round"/>
<path d="M80.6544 124.309C78.0428 126.319 76.2092 129.129 75.4524 132.281C74.0576 137.721 78.6536 159.871 79.8541 166.277C81.0545 172.684 87.0568 194.034 88.8632 195.422C90.6696 196.81 111.672 194.256 119.275 192.902C126.878 191.547 143.284 185.907 146.714 184.93C150.144 183.953 151.916 178.912 152.911 177.935C153.905 176.958 156.112 173.661 154.911 172.495C153.711 171.329 150.338 172.495 148.909 172.495C147.48 172.495 144.908 172.306 142.107 172.306C140.72 172.342 139.383 172.817 138.299 173.659C137.216 174.501 136.445 175.663 136.104 176.969C135.721 178.442 135.041 179.827 134.103 181.044C134.103 181.044 113.524 183.764 109.1 183.764C106.22 183.744 103.345 183.551 100.491 183.187C100.491 183.187 98.0896 169.775 96.2832 161.425C94.4768 153.076 92.8533 146.659 91.4814 144.516" fill="white"/>
<path d="M80.6544 124.309C78.0428 126.319 76.2092 129.129 75.4524 132.281C74.0576 137.721 78.6536 159.871 79.8541 166.277C81.0545 172.684 87.0568 194.034 88.8632 195.422C90.6696 196.81 111.672 194.256 119.275 192.902C126.878 191.547 143.284 185.907 146.714 184.93C150.144 183.953 151.916 178.912 152.911 177.935C153.905 176.958 156.112 173.661 154.911 172.495C153.711 171.329 150.338 172.495 148.909 172.495C147.48 172.495 144.908 172.306 142.107 172.306C140.72 172.342 139.383 172.817 138.299 173.659C137.216 174.501 136.445 175.663 136.104 176.969C135.721 178.442 135.041 179.827 134.103 181.044C134.103 181.044 113.524 183.764 109.1 183.764C106.22 183.744 103.345 183.551 100.491 183.187C100.491 183.187 98.0896 169.775 96.2832 161.425C94.4768 153.076 92.8533 146.659 91.4814 144.516" stroke="#263238" stroke-linecap="round" stroke-linejoin="round"/>
<path d="M148.886 172.495C147.491 172.495 144.885 172.306 142.084 172.306C140.697 172.342 139.36 172.817 138.276 173.659C137.193 174.501 136.422 175.663 136.081 176.969C135.698 178.442 135.018 179.827 134.081 181.044L132.629 181.233C133.206 182.393 133.562 183.646 133.68 184.93C133.74 186.334 133.652 187.74 133.417 189.127C139.34 187.306 144.85 185.452 146.691 184.93C150.121 183.964 151.893 178.912 152.888 177.935C153.882 176.958 156.089 173.661 154.889 172.495C153.688 171.329 150.292 172.495 148.886 172.495Z" fill="white" stroke="#263238" stroke-linecap="round" stroke-linejoin="round"/>
<path d="M135.35 209.112C135.35 209.112 140.506 209.523 142.209 209.523C143.913 209.523 155.746 208.279 154.031 206.403C152.316 204.526 139.397 202.85 139.397 202.85L135.35 209.112Z" fill="white" stroke="#263238" stroke-linecap="round" stroke-linejoin="round"/>
<path d="M161.119 197.843L123.539 214.741L138.139 243.519L175.079 225.377L161.119 197.843Z" fill="white" stroke="#263238" stroke-linecap="round" stroke-linejoin="round"/>
<path d="M135.956 207.435C135.956 207.435 140.46 207.435 141.535 208.068C142.61 208.701 147.114 212.654 147.766 211.61C148.417 210.566 145.834 208.068 144.759 207.024C143.684 205.981 142.61 205.148 142.61 205.148" fill="white"/>
<path d="M135.956 207.435C135.956 207.435 140.46 207.435 141.535 208.068C142.61 208.701 147.114 212.654 147.766 211.61C148.417 210.566 145.834 208.068 144.759 207.024C143.684 205.981 142.61 205.148 142.61 205.148" stroke="#263238" stroke-linecap="round" stroke-linejoin="round"/>
<path d="M100.685 193.057L139.385 202.85L133.326 211.465L92.5904 206.769C92.5904 206.769 82.9295 193.845 100.685 193.057Z" fill="white" stroke="#263238" stroke-linecap="round" stroke-linejoin="round"/>
<path d="M73.2915 194.7C73.2915 194.7 63.8594 202.472 60.7153 211.91C57.5712 221.347 55.5705 240.222 55.5705 240.222C55.5705 240.222 45.5666 254.1 45.5666 255.488C45.5666 256.876 53.8555 255.488 53.8555 255.488L45.8525 268.811C45.8525 268.811 45.8525 279.914 52.1406 285.743C55.0435 288.421 58.5268 290.434 62.335 291.635C66.1432 292.835 70.1799 293.193 74.149 292.682C81.0088 291.572 93.585 276.583 95.0142 275.75C96.4433 274.918 91.5843 262.15 90.441 257.431C89.2977 252.712 91.5843 249.381 93.0134 248.549C94.4425 247.716 102.731 242.72 104.446 239.111C106.161 235.503 105.875 229.396 105.304 224.678C104.732 219.959 97.5866 203.582 91.2985 198.586C85.0103 193.59 79.2938 190.259 73.2915 194.7Z" fill="white" stroke="#263238" stroke-linecap="round" stroke-linejoin="round"/>
<path d="M79.008 193.313C79.008 193.313 74.7207 199.419 74.7207 203.86C74.7207 208.301 78.4364 215.518 81.2946 218.849C82.9746 220.816 84.789 222.67 86.7253 224.4L93.0134 223.012L93.2992 227.731C93.2992 227.731 94.7283 225.233 98.7299 226.898C102.731 228.564 105.304 227.454 105.304 226.621C106.671 221.243 106.671 215.622 105.304 210.244C103.017 200.529 100.445 198.864 96.7291 195.256C93.0134 191.647 84.4387 190.259 79.008 193.313Z" fill="white" stroke="#263238" stroke-linecap="round" stroke-linejoin="round"/>
<path d="M81.8663 194.7C81.8663 194.7 78.7222 199.974 80.4371 204.138C82.1521 208.301 87.5827 213.298 91.8701 216.906C96.1574 220.514 101.588 224.4 101.588 224.4C102.558 221.329 102.881 218.099 102.537 214.904C102.193 211.709 101.19 208.614 99.5873 205.803C94.1567 195.811 84.4387 192.757 81.8663 194.7Z" fill="white" stroke="#263238" stroke-linecap="round" stroke-linejoin="round"/>
<path d="M106.733 169.442C107.534 171.244 108.203 173.099 108.734 174.993V176.936C108.734 176.936 112.735 179.156 112.164 179.989C111.592 180.822 109.305 184.43 109.305 184.43C109.618 187.483 109.522 190.562 109.02 193.59C108.162 197.198 109.305 198.864 106.161 198.864H98.1582C98.1582 198.864 97.3008 210.522 95.3 210.522C93.2992 210.522 84.1529 206.358 82.4379 204.138C80.723 201.917 80.1513 199.697 80.723 198.031C82.5018 193.582 84.0285 189.042 85.2962 184.43C86.4395 179.434 95.0142 175.548 97.0149 174.715C99.0157 173.883 106.733 169.442 106.733 169.442Z" fill="white" stroke="#263238" stroke-linecap="round" stroke-linejoin="round"/>
<path d="M75.0065 189.149C75.0065 189.149 68.1467 188.039 64.7168 188.594C61.287 189.149 56.9996 193.868 56.9996 198.586C56.9996 203.305 60.7153 206.081 66.7176 206.636C72.7199 207.191 76.7215 202.195 76.7215 199.419C76.7247 195.928 76.1455 192.46 75.0065 189.149Z" fill="#263238" stroke="#263238" stroke-linecap="round" stroke-linejoin="round"/>
<path d="M92.4417 187.761C92.4417 187.761 103.303 176.381 106.733 169.442C110.163 162.502 109.02 155.286 103.589 155.286C98.1582 155.286 92.1559 153.62 81.8663 157.229C71.5766 160.837 67.2892 172.495 67.8609 178.601C68.4325 184.708 77.8647 197.198 82.7237 198.031C87.5827 198.864 87.5827 190.537 87.5827 190.537L92.4417 187.761Z" fill="#263238" stroke="#263238" stroke-linecap="round" stroke-linejoin="round"/>
<path d="M93.8708 189.704C93.8708 189.704 91.2984 184.153 88.1544 185.818C85.0103 187.484 87.8685 193.59 89.8693 194.978C91.8701 196.366 95.0141 194.145 95.0141 194.145" fill="white"/>
<path d="M93.8708 189.704C93.8708 189.704 91.2984 184.153 88.1544 185.818C85.0103 187.484 87.8685 193.59 89.8693 194.978C91.8701 196.366 95.0141 194.145 95.0141 194.145" stroke="#263238" stroke-linecap="round" stroke-linejoin="round"/>
<path d="M108.734 176.936C108.734 176.936 107.59 180.544 106.161 181.099" stroke="#263238" stroke-linecap="round" stroke-linejoin="round"/>
<path d="M130.651 227.198C130.651 227.198 128.456 225.777 128.17 227.62C127.884 229.463 130.068 231.45 130.068 231.45C130.068 231.45 127.289 228.475 127.141 230.174C126.992 231.872 128.753 233.726 128.753 233.726C128.753 233.726 126.558 232.727 126.558 233.582C126.558 234.437 129.633 237.413 129.77 238.823C129.908 240.233 132.697 235.847 133.28 232.45C133.404 231.422 133.222 230.381 132.756 229.45C132.29 228.52 131.56 227.738 130.651 227.198Z" fill="white" stroke="#263238" stroke-linecap="round" stroke-linejoin="round"/>
<path d="M126.455 248.271C127.145 245.816 127.623 243.309 127.884 240.777C127.884 238.556 130.456 234.67 131.6 232.45C132.743 230.229 127.884 226.343 130.17 225.233C132.457 224.123 134.172 226.343 136.173 228.841C138.174 231.339 138.745 236.613 137.03 240.222C135.413 243.56 133.294 246.647 130.742 249.381C129.905 250.252 128.942 251 127.884 251.602L126.455 248.271Z" fill="white" stroke="#263238" stroke-linecap="round" stroke-linejoin="round"/>
<path d="M128.616 242.942V235.914C128.616 232.394 130.651 227.198 130.651 227.198C130.985 227.154 131.326 227.192 131.642 227.308C131.958 227.424 132.239 227.615 132.46 227.862C132.681 228.11 132.836 228.408 132.909 228.728C132.982 229.048 132.972 229.381 132.88 229.696C132.693 231.98 132.835 234.279 133.303 236.524" fill="white"/>
<path d="M128.616 242.942V235.914C128.616 232.394 130.651 227.198 130.651 227.198C130.985 227.154 131.326 227.192 131.642 227.308C131.958 227.424 132.239 227.615 132.46 227.862C132.681 228.11 132.836 228.408 132.909 228.728C132.982 229.048 132.972 229.381 132.88 229.696C132.693 231.98 132.835 234.279 133.303 236.524" stroke="#263238" stroke-linecap="round" stroke-linejoin="round"/>
<path d="M65.2885 238.834C65.2885 238.834 61.2869 244.385 63.2877 250.492C65.2885 256.598 93.8709 293.515 97.8724 293.515C101.874 293.515 130.742 257.153 132.457 254.933C134.172 252.712 126.741 247.161 126.741 247.161L97.8724 272.697C97.8724 272.697 90.1551 242.72 87.0111 237.168C83.867 231.617 76.4356 231.062 76.4356 231.062" fill="white"/>
<path d="M65.2885 238.834C65.2885 238.834 61.2869 244.385 63.2877 250.492C65.2885 256.598 93.8709 293.515 97.8724 293.515C101.874 293.515 130.742 257.153 132.457 254.933C134.172 252.712 126.741 247.161 126.741 247.161L97.8724 272.697C97.8724 272.697 90.1551 242.72 87.0111 237.168C83.867 231.617 76.4356 231.062 76.4356 231.062" stroke="#263238" stroke-linecap="round" stroke-linejoin="round"/>
<path d="M203.524 121.233C203.524 121.233 207.469 117.014 211.619 116.237C215.769 115.46 217.941 118.158 216.764 122.954C215.586 127.751 211.825 128.905 209.641 128.717C207.457 128.528 203.924 127.606 202.93 125.075C202.611 124.453 202.497 123.75 202.603 123.063C202.71 122.376 203.031 121.737 203.524 121.233Z" fill="#263238" stroke="#263238" stroke-linecap="round" stroke-linejoin="round"/>
<path d="M205.891 120.079C205.891 120.079 197.396 121.189 195.418 122.577C193.44 123.965 188.89 131.404 188.89 132.358C188.89 133.313 191.657 134.279 193.04 134.279C194.424 134.279 197.991 129.672 197.991 129.672L196.207 134.479C196.207 134.479 197.991 134.279 198.185 133.513C198.379 132.747 201.146 127.562 201.146 127.562C201.146 127.562 206.291 127.762 207.674 125.452C209.058 123.143 210.041 121.611 205.891 120.079Z" fill="white" stroke="#263238" stroke-linecap="round" stroke-linejoin="round"/>
<path d="M222.949 107.411C222.949 107.411 220.571 115.182 220.571 120.001C220.571 124.82 223.989 140.375 223.989 140.375C223.516 143.007 222.333 145.47 220.559 147.514C217.747 150.456 218.616 154.442 219.908 155.696C221.2 156.951 223.806 159.271 224.664 157.795C225.521 156.318 224.881 153.598 225.75 152.554C226.619 151.511 229.854 149.823 230.323 146.67C230.792 143.517 230.106 133.868 230.106 128.617C230.106 123.365 232.918 115.604 229.889 110.153" fill="white"/>
<path d="M222.949 107.411C222.949 107.411 220.571 115.182 220.571 120.001C220.571 124.82 223.989 140.375 223.989 140.375C223.516 143.007 222.333 145.47 220.559 147.514C217.747 150.456 218.616 154.442 219.908 155.696C221.2 156.951 223.806 159.271 224.664 157.795C225.521 156.318 224.881 153.598 225.75 152.554C226.619 151.511 229.854 149.823 230.323 146.67C230.792 143.517 230.106 133.868 230.106 128.617C230.106 123.365 232.918 115.604 229.889 110.153" stroke="#263238" stroke-linecap="round" stroke-linejoin="round"/>
<path d="M230.335 137.888C226.825 137.21 224.893 138.365 223.864 139.609C223.966 140.086 224.035 140.364 224.035 140.364C223.562 142.996 222.378 145.459 220.605 147.503C217.793 150.445 218.662 154.431 219.953 155.685C221.245 156.94 223.852 159.26 224.71 157.784C225.567 156.307 224.927 153.587 225.796 152.543C226.665 151.5 229.9 149.812 230.369 146.659C230.538 143.737 230.527 140.808 230.335 137.888Z" fill="white" stroke="#263238" stroke-linecap="round" stroke-linejoin="round"/>
<path d="M236.348 137.632L215.598 160.515L236.566 175.004L256.665 150.234L236.348 137.632Z" fill="white" stroke="#263238" stroke-linecap="round" stroke-linejoin="round"/>
<path d="M227.271 147.036C227.271 147.036 227.488 154.175 227.488 155.23C227.488 156.285 229.866 157.539 230.083 155.019C230.118 153.612 230.263 152.209 230.517 150.822C230.735 150.189 232.027 146.204 230.3 143.261" fill="white"/>
<path d="M227.271 147.036C227.271 147.036 227.488 154.175 227.488 155.23C227.488 156.285 229.866 157.539 230.083 155.019C230.118 153.612 230.263 152.209 230.517 150.822C230.735 150.189 232.027 146.204 230.3 143.261" stroke="#263238" stroke-linecap="round" stroke-linejoin="round"/>
<path d="M285.636 91.4559C285.636 91.4559 279.805 97.7512 276.992 103.669C274.18 109.587 272.019 124.653 272.019 124.653C272.019 124.653 260.781 142.495 259.26 143.972C257.739 145.449 258.62 145.227 254.938 146.903C251.257 148.58 246.512 149.423 245.861 150.478C245.209 151.533 242.831 156.562 242.191 157.195C241.55 157.828 243.048 159.083 243.917 158.239C244.786 157.395 247.804 154.042 247.804 154.042L244.134 162.436C244.141 162.59 244.18 162.741 244.25 162.879C244.32 163.018 244.419 163.14 244.541 163.24C244.662 163.339 244.804 163.412 244.956 163.456C245.109 163.499 245.269 163.511 245.426 163.491C247.011 163.204 248.55 162.711 249.999 162.025C249.999 162.025 253.681 161.181 254.973 159.505C256.265 157.828 261.032 148.791 261.032 148.791C261.032 148.791 273.608 141.019 278.101 135.778C281.619 131.637 284.397 126.954 286.322 121.922C286.962 119.823 294.965 96.5299 294.748 92.7438C294.531 88.9578 292.587 88.3027 292.587 88.3027" fill="white"/>
<path d="M285.636 91.4559C285.636 91.4559 279.805 97.7512 276.992 103.669C274.18 109.587 272.019 124.653 272.019 124.653C272.019 124.653 260.781 142.495 259.26 143.972C257.739 145.449 258.62 145.227 254.938 146.903C251.257 148.58 246.512 149.423 245.861 150.478C245.209 151.533 242.831 156.562 242.191 157.195C241.55 157.828 243.048 159.083 243.917 158.239C244.786 157.395 247.804 154.042 247.804 154.042L244.134 162.436C244.141 162.59 244.18 162.741 244.25 162.879C244.32 163.018 244.419 163.14 244.541 163.24C244.662 163.339 244.804 163.412 244.956 163.456C245.109 163.499 245.269 163.511 245.426 163.491C247.011 163.204 248.55 162.711 249.999 162.025C249.999 162.025 253.681 161.181 254.973 159.505C256.265 157.828 261.032 148.791 261.032 148.791C261.032 148.791 273.608 141.019 278.101 135.778C281.619 131.637 284.397 126.954 286.322 121.922C286.962 119.823 294.965 96.5299 294.748 92.7438C294.531 88.9578 292.587 88.3027 292.587 88.3027" stroke="#263238" stroke-linecap="round" stroke-linejoin="round"/>
<path d="M258.62 144.605C257.911 145.393 257.934 145.504 254.938 146.825C251.268 148.513 246.512 149.346 245.861 150.4C245.209 151.455 242.831 156.485 242.191 157.118C241.55 157.75 243.048 159.005 243.917 158.161C244.786 157.317 247.804 153.964 247.804 153.964L244.134 162.358C244.141 162.512 244.18 162.663 244.25 162.802C244.32 162.94 244.419 163.063 244.541 163.162C244.662 163.261 244.804 163.335 244.956 163.378C245.109 163.421 245.269 163.433 245.426 163.413C247.011 163.126 248.55 162.633 249.999 161.947C249.999 161.947 253.681 161.103 254.973 159.427C256.265 157.75 261.032 148.713 261.032 148.713C261.032 148.713 261.81 148.235 263.067 147.425C261.915 146.067 260.363 145.083 258.62 144.605Z" fill="white" stroke="#263238" stroke-linecap="round" stroke-linejoin="round"/>
<path d="M344.378 151.2C344.378 151.2 339.599 159.96 338.719 163.413C337.839 166.866 336.432 170.63 336.432 170.63C336.432 170.63 327.583 169.253 319.98 168.409C312.377 167.565 301.585 165.656 298.921 165.145C296.257 164.634 291.318 163.246 290.255 164.112C289.191 164.978 289.9 164.801 291.146 165.311C292.176 165.617 293.266 165.678 294.325 165.489C294.325 165.489 292.553 166 290.609 166.688C288.665 167.377 285.121 168.576 284.595 169.264C284.069 169.952 285.304 172.362 287.248 172.362C288.721 172.271 290.199 172.271 291.672 172.362C292.736 172.528 293.262 173.561 296.806 173.561C300.35 173.561 305.289 170.807 305.289 170.807C305.289 170.807 321.924 178.202 331.299 179.745C340.674 181.288 342.092 179.234 345.99 176.303C349.889 173.372 361.196 155.352 360.316 151.744C359.74 149.485 358.782 147.335 357.48 145.382" fill="#263238"/>
<path d="M344.378 151.2C344.378 151.2 339.599 159.96 338.719 163.413C337.839 166.866 336.432 170.63 336.432 170.63C336.432 170.63 327.583 169.253 319.98 168.409C312.377 167.565 301.585 165.656 298.921 165.145C296.257 164.634 291.318 163.246 290.255 164.112C289.191 164.978 289.9 164.801 291.146 165.311C292.176 165.617 293.266 165.678 294.325 165.489C294.325 165.489 292.553 166 290.609 166.688C288.665 167.377 285.121 168.576 284.595 169.264C284.069 169.952 285.304 172.362 287.248 172.362C288.721 172.271 290.199 172.271 291.672 172.362C292.736 172.528 293.262 173.561 296.806 173.561C300.35 173.561 305.289 170.807 305.289 170.807C305.289 170.807 321.924 178.202 331.299 179.745C340.674 181.288 342.092 179.234 345.99 176.303C349.889 173.372 361.196 155.352 360.316 151.744C359.74 149.485 358.782 147.335 357.48 145.382" stroke="#263238" stroke-linecap="round" stroke-linejoin="round"/>
<path d="M309.096 166.866C304.466 166.133 300.407 165.411 298.909 165.123C296.257 164.601 291.307 163.224 290.243 164.09C289.18 164.956 289.889 164.778 291.135 165.289C292.165 165.595 293.255 165.656 294.313 165.467C294.313 165.467 292.541 165.978 290.598 166.666C288.654 167.354 285.11 168.553 284.584 169.242C284.058 169.93 285.293 172.339 287.236 172.339C288.71 172.249 290.188 172.249 291.661 172.339C292.724 172.506 293.25 173.539 296.794 173.539C300.339 173.539 305.278 170.785 305.278 170.785C305.278 170.785 306.581 171.362 308.65 172.228L309.096 166.866Z" fill="white" stroke="#263238" stroke-linecap="round" stroke-linejoin="round"/>
<path d="M297.675 124.742C297.675 124.742 289.363 128.694 286.173 131.403C282.983 134.113 275.026 151.499 274.855 152.699C274.683 153.898 280.868 154.597 281.577 154.253C282.286 153.909 294.851 139.819 298.029 137.41C298.907 136.855 299.562 136.024 299.885 135.056C300.207 134.088 300.178 133.041 299.801 132.092" fill="#263238"/>
<path d="M297.675 124.742C297.675 124.742 289.363 128.694 286.173 131.403C282.983 134.113 275.026 151.499 274.855 152.699C274.683 153.898 280.868 154.597 281.577 154.253C282.286 153.909 294.851 139.819 298.029 137.41C298.907 136.855 299.562 136.024 299.885 135.056C300.207 134.088 300.178 133.041 299.801 132.092" stroke="#263238" stroke-linecap="round" stroke-linejoin="round"/>
<path d="M277.861 149.146C275.228 149.687 272.629 150.372 270.076 151.2C267.949 152.066 262.999 158.25 264.233 158.594C265.468 158.938 268.807 154.986 268.807 154.986C267.632 156.603 266.624 158.328 265.8 160.138C265.445 161.514 265.091 164.579 266.509 164.09C267.926 163.602 270.75 159.793 270.75 159.793C270.75 159.793 274.283 157.728 277.118 157.728C279.954 157.728 281.897 152.577 281.897 152.577C281.897 152.577 284.184 150.356 283.315 147.936C282.446 145.515 277.861 149.146 277.861 149.146Z" fill="white" stroke="#263238" stroke-linecap="round" stroke-linejoin="round"/>
<path d="M282.64 147.769C281.941 147.797 281.244 147.671 280.6 147.402C279.957 147.133 279.385 146.727 278.925 146.215C277.507 144.505 276.638 146.215 276.638 147.936C276.66 148.437 276.841 148.919 277.156 149.317C277.471 149.715 277.905 150.008 278.399 150.156C278.399 150.156 275.392 152.91 277.164 153.765C277.749 153.989 278.384 154.061 279.007 153.971C279.629 153.881 280.216 153.634 280.708 153.254" fill="white"/>
<path d="M282.64 147.769C281.941 147.797 281.244 147.671 280.6 147.402C279.957 147.133 279.385 146.727 278.925 146.215C277.507 144.505 276.638 146.215 276.638 147.936C276.66 148.437 276.841 148.919 277.156 149.317C277.471 149.715 277.905 150.008 278.399 150.156C278.399 150.156 275.392 152.91 277.164 153.765C277.749 153.989 278.384 154.061 279.007 153.971C279.629 153.881 280.216 153.634 280.708 153.254" stroke="#263238" stroke-linecap="round" stroke-linejoin="round"/>
<path d="M344.836 192.558C344.836 192.558 336.067 190.937 332.934 190.337C329.801 189.738 319.569 193.79 316.653 194.778C313.738 195.766 316.653 196.61 319.786 197.21C322.919 197.809 329.172 196.61 329.172 196.61C329.172 196.61 322.313 199.441 323.959 199.852C325.605 200.263 328.967 199.441 331.894 199.241C334.82 199.042 337.736 196.399 337.736 196.399C337.736 196.399 351.73 203.061 353.399 203.061C355.068 203.061 357.572 198.198 354.016 196.166C351.086 194.673 348.011 193.464 344.836 192.558Z" fill="white" stroke="#263238" stroke-linecap="round" stroke-linejoin="round"/>
<path d="M347.968 200.03C342.487 204.06 337.635 208.84 333.563 214.219C327.503 222.535 326.463 239.356 327.721 244.197C328.978 249.037 329.801 254.733 335.861 258.63C341.92 262.527 346.299 264.104 356.737 258.63C367.176 253.156 372.606 234.915 371.6 220.881C370.594 206.847 361.791 197.154 357.195 195.944C352.599 194.734 347.968 200.03 347.968 200.03Z" fill="white" stroke="#263238" stroke-linecap="round" stroke-linejoin="round"/>
<path d="M348.608 202.661C348.608 202.661 344.847 203.072 342.972 205.503C341.097 207.935 341.714 208.745 342.972 209.356C343.365 209.602 343.699 209.928 343.95 210.311C344.201 210.694 344.362 211.126 344.424 211.577C344.424 211.577 340.045 218.471 342.343 219.881C344.641 221.291 354.862 216.639 357.583 213.22C360.304 209.8 359.047 204.093 357.378 202.472C355.708 200.851 348.608 202.661 348.608 202.661Z" fill="white" stroke="#263238" stroke-linecap="round" stroke-linejoin="round"/>
<path d="M346.082 176.314C344.873 177.712 343.468 178.938 341.909 179.956C340.24 180.766 338.159 181.577 339.828 182.798C340.782 183.478 341.687 184.22 342.538 185.019C342.538 185.019 340.445 191.68 341.291 195.555C341.365 196.05 341.548 196.524 341.827 196.944C342.106 197.365 342.475 197.722 342.909 197.992C343.343 198.261 343.831 198.437 344.341 198.507C344.851 198.577 345.371 198.54 345.865 198.398C345.865 198.398 345.236 208.534 344.401 211.577C343.567 214.619 347.534 214.408 350.666 212.587C353.799 210.766 354.222 203.261 355.468 197.787C356.714 192.313 364.237 185.829 359.024 179.745C353.81 173.661 346.082 176.314 346.082 176.314Z" fill="white" stroke="#263238" stroke-linecap="round" stroke-linejoin="round"/>
<path d="M380.118 169.419C372.389 161.714 360.682 163.535 359.035 163.946C359.035 163.946 352.519 162.402 348.746 163.013C344.973 163.624 343.567 174.116 345.865 179.956C346.684 182.052 348.233 183.804 350.243 184.908C349.866 184.586 347.637 182.543 349.786 180.922C351.063 179.904 352.579 179.21 354.199 178.901C354.199 178.901 352.381 184.697 353.159 185.718C356.337 189.826 342.046 209.201 341.486 208.89C341.486 208.89 345.659 211.177 350.884 213.608C362.42 218.993 376.036 207.502 380.312 197.798C383.719 190.137 387 176.281 380.118 169.419Z" fill="#263238" stroke="#263238" stroke-linecap="round" stroke-linejoin="round"/>
<path d="M267.709 198.309L257.168 241.132L278.73 250.669L286.882 210.411L267.709 198.309Z" fill="white" stroke="#263238" stroke-linecap="round" stroke-linejoin="round"/>
<path d="M268.441 202.739L259.683 238.323L277.598 246.25L284.378 212.787L268.441 202.739Z" fill="#263238" stroke="#263238" stroke-linecap="round" stroke-linejoin="round"/>
<path d="M286.882 210.411L316.356 211.81L310.605 253.001L278.73 250.669L286.882 210.411Z" fill="white" stroke="#263238" stroke-linecap="round" stroke-linejoin="round"/>
<path d="M295.56 228.708L297.698 228.797L297.915 227.465L295.811 227.32L295.56 228.708Z" fill="#263238"/>
<path d="M300.522 238.057L300.865 236.025L297.892 235.892L297.572 237.857L300.522 238.057Z" fill="#263238"/>
<path d="M295.262 222.879L295.525 221.447L292.85 221.269L292.576 222.768L295.262 222.879Z" fill="#263238"/>
<path d="M296.589 222.946L298.624 223.035L298.841 221.68L296.84 221.547L296.589 222.946Z" fill="#263238"/>
<path d="M295.011 231.828L297.183 231.983L297.492 230.063L295.331 229.974L295.011 231.828Z" fill="#263238"/>
<path d="M302.477 226.488L302.82 224.5L299.744 224.356L299.435 226.288L302.477 226.488Z" fill="#263238"/>
<path d="M293.627 217.006L296.291 217.128L296.68 214.907L294.039 214.774L293.627 217.006Z" fill="#263238"/>
<path d="M299.55 217.272L299.904 215.074L298.006 214.974L297.618 217.183L299.55 217.272Z" fill="#263238"/>
<path d="M293.399 218.271L293.079 220.015L295.743 220.192L296.063 218.383L293.399 218.271Z" fill="#263238"/>
<path d="M298.429 224.3L296.36 224.211L296.028 226.054L298.121 226.199L298.429 224.3Z" fill="#263238"/>
<path d="M299.355 218.538L297.389 218.449L297.057 220.281L299.047 220.414L299.355 218.538Z" fill="#263238"/>
<path d="M301.505 232.272L301.848 230.263L298.818 230.129L298.509 232.072L301.505 232.272Z" fill="#263238"/>
<path d="M289.42 232.727L287.236 232.583L286.951 234.126L289.146 234.226L289.42 232.727Z" fill="#263238"/>
<path d="M288.917 235.492L286.722 235.392L286.425 237.091L288.597 237.246L288.917 235.492Z" fill="#263238"/>
<path d="M288.368 238.501L286.196 238.356L285.922 239.889L288.094 239.988L288.368 238.501Z" fill="#263238"/>
<path d="M287.865 241.254L285.682 241.154L285.373 242.864L287.534 243.02L287.865 241.254Z" fill="#263238"/>
<path d="M289.969 229.73L287.762 229.63L287.465 231.317L289.649 231.473L289.969 229.73Z" fill="#263238"/>
<path d="M291.021 223.967L288.803 223.867L288.505 225.544L290.712 225.688L291.021 223.967Z" fill="#263238"/>
<path d="M292.084 218.205L289.843 218.105L289.546 219.77L291.764 219.915L292.084 218.205Z" fill="#263238"/>
<path d="M290.472 226.954L288.277 226.81L287.991 228.364L290.198 228.464L290.472 226.954Z" fill="#263238"/>
<path d="M291.535 221.18L289.317 221.025L289.031 222.602L291.249 222.702L291.535 221.18Z" fill="#263238"/>
<path d="M303.791 218.738L300.67 218.594L300.361 220.503L303.46 220.714L303.791 218.738Z" fill="#263238"/>
<path d="M287.305 244.274L285.156 244.13L284.721 246.484L286.871 246.695L287.305 244.274Z" fill="#263238"/>
<path d="M299.024 228.864L302.054 228.997L302.271 227.753L299.23 227.553L299.024 228.864Z" fill="#263238"/>
<path d="M297.16 240.388L300.11 240.521L300.316 239.311L297.366 239.111L297.16 240.388Z" fill="#263238"/>
<path d="M298.086 234.626L301.082 234.759L301.288 233.538L298.304 233.338L298.086 234.626Z" fill="#263238"/>
<path d="M296.989 233.238L294.782 233.094L294.531 234.47L296.771 234.57L296.989 233.238Z" fill="#263238"/>
<path d="M299.893 241.787L296.966 241.654L296.646 243.63L299.55 243.83L299.893 241.787Z" fill="#263238"/>
<path d="M296.44 244.896L296.005 247.594L298.864 247.872L299.332 245.096L296.44 244.896Z" fill="#263238"/>
<path d="M292.027 225.788L294.714 225.966L295.045 224.145L292.347 224.034L292.027 225.788Z" fill="#263238"/>
<path d="M292.313 216.939L292.724 214.708L290.472 214.597L290.072 216.85L292.313 216.939Z" fill="#263238"/>
<path d="M299.95 223.09L303.037 223.234L303.243 221.98L300.156 221.769L299.95 223.09Z" fill="#263238"/>
<path d="M300.876 217.328L304.009 217.472L304.374 215.296L301.219 215.141L300.876 217.328Z" fill="#263238"/>
<path d="M296.566 235.836L294.313 235.725L293.97 237.601L296.257 237.757L296.566 235.836Z" fill="#263238"/>
<path d="M292.987 235.669L290.232 235.547L289.912 237.335L292.656 237.513L292.987 235.669Z" fill="#263238"/>
<path d="M293.753 238.867L293.513 240.222L295.845 240.333L296.063 239.023L293.753 238.867Z" fill="#263238"/>
<path d="M295.64 241.598L293.285 241.487L292.942 243.386L295.331 243.541L295.64 241.598Z" fill="#263238"/>
<path d="M288.86 243.108L291.627 243.297L291.958 241.432L289.18 241.31L288.86 243.108Z" fill="#263238"/>
<path d="M292.438 238.778L289.683 238.59L289.42 240.044L292.187 240.166L292.438 238.778Z" fill="#263238"/>
<path d="M290.472 234.282L293.216 234.404L293.467 233.005L290.735 232.816L290.472 234.282Z" fill="#263238"/>
<path d="M288.62 244.363L288.174 246.817L290.952 247.094L291.409 244.552L288.62 244.363Z" fill="#263238"/>
<path d="M295.125 244.807L292.724 244.641L292.267 247.228L294.702 247.461L295.125 244.807Z" fill="#263238"/>
<path d="M294.496 227.231L291.798 227.043L291.524 228.519L294.245 228.642L294.496 227.231Z" fill="#263238"/>
<path d="M294.016 229.907L291.295 229.785L290.964 231.561L293.685 231.739L294.016 229.907Z" fill="#263238"/>
<path d="M349.009 236.724C349.009 236.724 346.322 236.969 341.749 240.577C337.176 244.185 318.997 274.995 318.997 274.995C318.997 274.995 302.499 265.003 298.326 262.227C294.153 259.452 290.815 254.322 288.517 251.28C286.219 248.238 285.796 247.827 282.663 247.627C279.531 247.427 277.244 245.407 276.821 246.817C276.398 248.227 277.656 248.848 278.49 249.248C279.22 249.52 279.995 249.66 280.777 249.659C278.807 249.947 276.797 249.512 275.14 248.438C272.008 246.617 271.173 246.217 271.173 248.238C271.173 250.258 273.46 253.512 275.14 255.532C276.821 257.553 286.413 258.375 286.413 258.375C289.895 264.901 293.801 271.206 298.109 277.249C304.363 285.765 317.728 294.892 321.49 293.67C325.251 292.449 345.076 268.334 350.506 261.639C355.937 254.944 363.083 247.039 361.356 242.586" fill="white"/>
<path d="M349.009 236.724C349.009 236.724 346.322 236.969 341.749 240.577C337.176 244.185 318.997 274.995 318.997 274.995C318.997 274.995 302.499 265.003 298.326 262.227C294.153 259.452 290.815 254.322 288.517 251.28C286.219 248.238 285.796 247.827 282.663 247.627C279.531 247.427 277.244 245.407 276.821 246.817C276.398 248.227 277.656 248.848 278.49 249.248C279.22 249.52 279.995 249.66 280.777 249.659C278.807 249.947 276.797 249.512 275.14 248.438C272.008 246.617 271.173 246.217 271.173 248.238C271.173 250.258 273.46 253.512 275.14 255.532C276.821 257.553 286.413 258.375 286.413 258.375C289.895 264.901 293.801 271.206 298.109 277.249C304.363 285.765 317.728 294.892 321.49 293.67C325.251 292.449 345.076 268.334 350.506 261.639C355.937 254.944 363.083 247.039 361.356 242.586" stroke="#263238" stroke-linecap="round" stroke-linejoin="round"/>
<path d="M292.656 256.854C291.021 254.866 289.615 252.834 288.471 251.302C286.185 248.26 285.75 247.849 282.618 247.649C279.485 247.45 277.198 245.429 276.775 246.839C276.352 248.249 277.61 248.871 278.445 249.27C279.174 249.543 279.949 249.682 280.731 249.681C278.761 249.97 276.751 249.534 275.095 248.46C271.962 246.639 271.127 246.239 271.127 248.26C271.127 250.281 273.414 253.534 275.095 255.555C276.775 257.575 286.368 258.397 286.368 258.397C286.368 258.397 286.791 259.196 287.511 260.495C288.868 258.865 290.642 257.609 292.656 256.854Z" fill="white" stroke="#263238" stroke-linecap="round" stroke-linejoin="round"/>
</svg>
